
<svg width="375px" height="39px" viewBox="0 0 375 39" version="1.1" xmlns="http://www.w3.org/2000/svg" xmlns:xlink="http://www.w3.org/1999/xlink">
    <!-- Generator: Sketch 47.1 (45422) - http://www.bohemiancoding.com/sketch -->
    <desc>Created with Sketch.</desc>
    <defs></defs>
    <g id="Symbols" stroke="none" stroke-width="1" fill="none" fill-rule="evenodd">
        <g id="Header-180" transform="translate(-534.000000, -37.000000)" fill="#564943">
            <g id="Header">
                <g id="Liberty-Logo" transform="translate(534.000000, 36.000000)">
                    <g id="liberty-logo">
                        <g id="Gruppe_1" transform="translate(91.791045, 0.000000)" fill-rule="nonzero">
                            <path d="M28.0592351,39.545641 L28.0592351,31.9517949 L8.73022388,31.9517949 L8.73022388,1.02564103 L1.02201493,1.02564103 L1.02201493,39.545641 L28.0592351,39.545641 Z M47.8253731,1.02564103 L40.1140858,1.02564103 L40.1140858,39.545641 L47.8253731,39.545641 L47.8253731,1.02564103 Z M98.8563433,27.1087179 C98.9800609,23.4553248 96.8330647,20.1053193 93.4610075,18.6902564 C96.0689613,17.1099658 97.6253735,14.2501038 97.5357276,11.2030769 C97.5357276,4.59794872 92.8001866,1.02153846 85.3136194,1.02153846 L67.6407649,1.02153846 L67.6407649,39.545641 L85.1473881,39.545641 C93.405597,39.545641 98.8553172,35.1969231 98.8553172,27.1087179 L98.8563433,27.1087179 Z M89.7166978,11.8102564 C89.7166978,13.9579487 88.5612873,15.4441026 85.3669776,15.4441026 L75.1827425,15.4441026 L75.1827425,8.12615385 L84.9821828,8.12615385 C88.3406716,8.12615385 89.7166978,9.39179487 89.7166978,11.8133333 L89.7166978,11.8102564 Z M90.9285448,27.2184615 C90.9285448,30.2461538 89.1666978,32.225641 85.4223881,32.225641 L75.1827425,32.225641 L75.1827425,22.2676923 L85.4223881,22.2676923 C89.1666978,22.2676923 90.9285448,23.9179487 90.9285448,27.2184615 L90.9285448,27.2184615 Z M144.21903,39.545641 L144.21903,32.0071795 L124.343097,32.0071795 L124.343097,22.7066667 L135.412873,22.7066667 L135.412873,15.2194872 L124.343097,15.2194872 L124.343097,8.56205128 L143.395056,8.56205128 L143.395056,1.0225641 L116.638993,1.0225641 L116.638993,39.545641 L144.21903,39.545641 Z M193.546642,39.545641 L186.168843,24.5784615 C191.070616,22.6512821 193.547668,19.0194872 193.547668,13.2420513 C193.547668,5.03692308 187.546922,1.02564103 180.28097,1.02564103 L162.330037,1.02564103 L162.330037,39.545641 L170.036194,39.545641 L170.036194,25.6769231 L177.798787,25.6769231 L184.679944,39.5446154 L193.546642,39.545641 Z M185.617817,13.4071795 C185.617817,16.7641026 183.692817,18.414359 180.113713,18.414359 L170.036194,18.414359 L170.036194,8.50871795 L180.11166,8.50871795 C183.524534,8.50871795 185.615765,9.94461538 185.615765,13.4071795 L185.617817,13.4071795 Z M235.707836,8.61948718 L235.707836,1.02974359 L205.87444,1.02974359 L205.87444,8.61948718 L216.940112,8.61948718 L216.940112,39.545641 L224.647295,39.545641 L224.647295,8.61948718 L235.707836,8.61948718 Z M282.458862,1.02974359 L273.708116,1.02974359 L268.257369,10.1661538 C266.820802,12.5866667 264.78806,16.2748718 264.071828,17.7035897 C263.353545,16.2748718 261.265392,12.4728205 259.887313,10.1661538 L254.438619,1.02974359 L245.575,1.02974359 L260.167444,24.4676923 L260.167444,39.5446154 L267.875653,39.5446154 L267.875653,24.3035897 L282.458862,1.02974359 Z" id="Pfad_1"></path>
                        </g>
                        <g id="Gruppe_2" transform="translate(0.000000, 1.111111)" fill-rule="nonzero">
                            <path d="M52.2369403,0 L52.2369403,19.653 L68.0083786,19.653 L68.0083786,15.078 L57.8123982,15.078 L57.8123982,11.71 L63.8265265,11.71 L63.8265265,7.187 L57.8123982,7.187 L57.8123982,4.577 L67.805597,4.577 L67.805597,0 L52.2369403,0 Z M36.744844,0 L36.744844,7.16 L30.4110244,7.16 L30.4110244,0 L24.6596845,0 L24.6596845,19.653 L30.4110244,19.653 L30.4110244,11.9 L36.7438094,11.9 L36.7438094,19.649 L42.4961839,19.649 L42.4961839,0 L36.744844,0 Z M0,0 L0,4.747 L5.69029851,4.747 L5.69029851,19.653 L11.323694,19.653 L11.323694,4.747 L17.0139925,4.747 L17.0139925,0 L0,0 Z" id="Pfad_2"></path>
                        </g>
                    </g>
                </g>
            </g>
        </g>
    </g>
</svg>