
<svg width="375px" height="73px" viewBox="0 0 375 73" version="1.1" xmlns="http://www.w3.org/2000/svg" xmlns:xlink="http://www.w3.org/1999/xlink">
    <!-- Generator: Sketch 47.1 (45422) - http://www.bohemiancoding.com/sketch -->
    <desc>Created with Sketch.</desc>
    <defs></defs>
    <g id="Page-1" stroke="none" stroke-width="1" fill="none" fill-rule="evenodd">
        <g id="Liberty-Logo" transform="translate(0.000000, -1.000000)" fill="#564943">
            <g id="liberty-logo">
                <g id="Gruppe_1" transform="translate(91.791045, 0.000000)" fill-rule="nonzero">
                    <path d="M28.0592351,39.545641 L28.0592351,31.9517949 L8.73022388,31.9517949 L8.73022388,1.02564103 L1.02201493,1.02564103 L1.02201493,39.545641 L28.0592351,39.545641 Z M47.8253731,1.02564103 L40.1140858,1.02564103 L40.1140858,39.545641 L47.8253731,39.545641 L47.8253731,1.02564103 Z M98.8563433,27.1087179 C98.9800609,23.4553248 96.8330647,20.1053193 93.4610075,18.6902564 C96.0689613,17.1099658 97.6253735,14.2501038 97.5357276,11.2030769 C97.5357276,4.59794872 92.8001866,1.02153846 85.3136194,1.02153846 L67.6407649,1.02153846 L67.6407649,39.545641 L85.1473881,39.545641 C93.405597,39.545641 98.8553172,35.1969231 98.8553172,27.1087179 L98.8563433,27.1087179 Z M89.7166978,11.8102564 C89.7166978,13.9579487 88.5612873,15.4441026 85.3669776,15.4441026 L75.1827425,15.4441026 L75.1827425,8.12615385 L84.9821828,8.12615385 C88.3406716,8.12615385 89.7166978,9.39179487 89.7166978,11.8133333 L89.7166978,11.8102564 Z M90.9285448,27.2184615 C90.9285448,30.2461538 89.1666978,32.225641 85.4223881,32.225641 L75.1827425,32.225641 L75.1827425,22.2676923 L85.4223881,22.2676923 C89.1666978,22.2676923 90.9285448,23.9179487 90.9285448,27.2184615 L90.9285448,27.2184615 Z M144.21903,39.545641 L144.21903,32.0071795 L124.343097,32.0071795 L124.343097,22.7066667 L135.412873,22.7066667 L135.412873,15.2194872 L124.343097,15.2194872 L124.343097,8.56205128 L143.395056,8.56205128 L143.395056,1.0225641 L116.638993,1.0225641 L116.638993,39.545641 L144.21903,39.545641 Z M193.546642,39.545641 L186.168843,24.5784615 C191.070616,22.6512821 193.547668,19.0194872 193.547668,13.2420513 C193.547668,5.03692308 187.546922,1.02564103 180.28097,1.02564103 L162.330037,1.02564103 L162.330037,39.545641 L170.036194,39.545641 L170.036194,25.6769231 L177.798787,25.6769231 L184.679944,39.5446154 L193.546642,39.545641 Z M185.617817,13.4071795 C185.617817,16.7641026 183.692817,18.414359 180.113713,18.414359 L170.036194,18.414359 L170.036194,8.50871795 L180.11166,8.50871795 C183.524534,8.50871795 185.615765,9.94461538 185.615765,13.4071795 L185.617817,13.4071795 Z M235.707836,8.61948718 L235.707836,1.02974359 L205.87444,1.02974359 L205.87444,8.61948718 L216.940112,8.61948718 L216.940112,39.545641 L224.647295,39.545641 L224.647295,8.61948718 L235.707836,8.61948718 Z M282.458862,1.02974359 L273.708116,1.02974359 L268.257369,10.1661538 C266.820802,12.5866667 264.78806,16.2748718 264.071828,17.7035897 C263.353545,16.2748718 261.265392,12.4728205 259.887313,10.1661538 L254.438619,1.02974359 L245.575,1.02974359 L260.167444,24.4676923 L260.167444,39.5446154 L267.875653,39.5446154 L267.875653,24.3035897 L282.458862,1.02974359 Z" id="Pfad_1"></path>
                </g>
                <g id="Gruppe_2" transform="translate(0.000000, 1.111111)" fill-rule="nonzero">
                    <path d="M52.2369403,0 L52.2369403,19.653 L68.0083786,19.653 L68.0083786,15.078 L57.8123982,15.078 L57.8123982,11.71 L63.8265265,11.71 L63.8265265,7.187 L57.8123982,7.187 L57.8123982,4.577 L67.805597,4.577 L67.805597,0 L52.2369403,0 Z M36.744844,0 L36.744844,7.16 L30.4110244,7.16 L30.4110244,0 L24.6596845,0 L24.6596845,19.653 L30.4110244,19.653 L30.4110244,11.9 L36.7438094,11.9 L36.7438094,19.649 L42.4961839,19.649 L42.4961839,0 L36.744844,0 Z M0,0 L0,4.747 L5.69029851,4.747 L5.69029851,19.653 L11.323694,19.653 L11.323694,4.747 L17.0139925,4.747 L17.0139925,0 L0,0 Z" id="Pfad_2"></path>
                </g>
            </g>
        </g>
        <path d="M132.235,68.99 C132.235,70.978 131.017,72 128.875,72 L124.983,72 L124.983,62.2 L129.015,62.2 C130.723,62.2 131.829,63.096 131.829,64.748 C131.829,65.742 131.297,66.358 130.583,66.708 C131.353,66.918 132.235,67.632 132.235,68.99 Z M130.359,64.832 C130.359,64.104 129.981,63.544 129.001,63.544 L126.369,63.544 L126.369,66.078 L129.001,66.078 C129.967,66.078 130.359,65.476 130.359,64.832 Z M130.765,69.032 C130.765,68.024 130.135,67.408 129.029,67.408 L126.369,67.408 L126.369,70.656 L128.987,70.656 C130.289,70.656 130.765,69.998 130.765,69.032 Z M143.761,65.126 C143.761,66.694 142.935,67.66 141.605,67.996 L143.607,72 L141.913,72 L139.967,68.122 L137.755,68.122 L137.755,72 L136.313,72 L136.313,62.2 L140.611,62.2 C142.319,62.2 143.761,63.11 143.761,65.126 Z M142.277,65.168 C142.277,64.146 141.605,63.586 140.611,63.586 L137.755,63.586 L137.755,66.736 L140.611,66.736 C141.591,66.736 142.277,66.232 142.277,65.168 Z M154.433,72 L154.433,70.572 L149.379,70.572 L149.379,67.478 L152.193,67.478 L152.193,66.05 L149.379,66.05 L149.379,63.628 L154.223,63.628 L154.223,62.2 L147.909,62.2 L147.909,72 L154.433,72 Z M167.163,72 L167.163,62.2 L165.595,62.2 L163.439,67.422 C163.201,67.996 162.921,68.696 162.781,69.102 C162.655,68.696 162.347,67.982 162.109,67.422 L159.911,62.2 L158.399,62.2 L158.399,72 L159.785,72 L159.785,66.82 C159.785,66.232 159.771,65.378 159.757,65.098 C159.869,65.378 160.149,66.078 160.387,66.638 L162.739,72.154 L165.119,66.638 C165.357,66.078 165.637,65.378 165.749,65.098 C165.735,65.378 165.721,66.232 165.721,66.82 L165.721,72 L167.163,72 Z M178.115,72 L178.115,70.572 L173.061,70.572 L173.061,67.478 L175.875,67.478 L175.875,66.05 L173.061,66.05 L173.061,63.628 L177.905,63.628 L177.905,62.2 L171.591,62.2 L171.591,72 L178.115,72 Z M189.529,65.126 C189.529,66.694 188.703,67.66 187.373,67.996 L189.375,72 L187.681,72 L185.735,68.122 L183.523,68.122 L183.523,72 L182.081,72 L182.081,62.2 L186.379,62.2 C188.087,62.2 189.529,63.11 189.529,65.126 Z M188.045,65.168 C188.045,64.146 187.373,63.586 186.379,63.586 L183.523,63.586 L183.523,66.736 L186.379,66.736 C187.359,66.736 188.045,66.232 188.045,65.168 Z M201.125,72 L201.125,62.2 L199.655,62.2 L199.655,66.162 L195.147,66.162 L195.147,62.2 L193.677,62.2 L193.677,72 L195.147,72 L195.147,67.604 L199.655,67.604 L199.655,72 L201.125,72 Z M213.589,72 L212.021,72 L211.195,69.676 L207.275,69.676 L206.463,72 L204.937,72 L208.465,62.2 L210.019,62.2 L213.589,72 Z M210.747,68.36 L209.963,66.106 C209.725,65.406 209.333,64.272 209.221,63.852 C209.109,64.272 208.759,65.392 208.507,66.12 L207.723,68.36 L210.747,68.36 Z M225.101,62.2 L223.533,62.2 L221.517,68.43 C221.335,69.004 221.055,69.886 220.971,70.236 C220.887,69.886 220.607,69.018 220.425,68.444 L218.381,62.2 L216.785,62.2 L220.187,72 L221.741,72 L225.101,62.2 Z M235.437,72 L235.437,70.572 L230.383,70.572 L230.383,67.478 L233.197,67.478 L233.197,66.05 L230.383,66.05 L230.383,63.628 L235.227,63.628 L235.227,62.2 L228.913,62.2 L228.913,72 L235.437,72 Z M246.851,72 L246.851,62.2 L245.423,62.2 L245.423,67.254 C245.423,67.8 245.437,69.2 245.437,69.564 C245.297,69.312 244.877,68.584 244.625,68.178 L240.901,62.2 L239.403,62.2 L239.403,72 L240.831,72 L240.831,66.918 C240.831,66.372 240.817,65.014 240.817,64.65 C240.971,64.902 241.307,65.49 241.545,65.854 L245.451,72 L246.851,72 Z" id="Bremerhaven" fill="#564943"></path>
    </g>
</svg>