
<svg width="169px" height="25px" viewBox="0 0 169 25" version="1.1" xmlns="http://www.w3.org/2000/svg" xmlns:xlink="http://www.w3.org/1999/xlink">
    <!-- Generator: Sketch 47.1 (45422) - http://www.bohemiancoding.com/sketch -->
    <desc>Created with Sketch.</desc>
    <defs>
        <polygon id="path-1" points="0 0.71 0 24.9996667 22.7144593 24.9996667 22.7144593 0.71"></polygon>
        <polygon id="path-3" points="0 25 170 25 170 1 0 1"></polygon>
    </defs>
    <g id="Page-1" stroke="none" stroke-width="1" fill="none" fill-rule="evenodd">
        <g id="Landing-Desktop" transform="translate(-875.000000, -2124.000000)">
            <g id="Miami-spa-logo" transform="translate(875.000000, 2124.000000)">
                <g id="Miami-Spa-logo">
                    <g>
                        <g id="Group-3">
                            <mask id="mask-2" fill="white">
                                <use xlink:href="#path-1"></use>
                            </mask>
                            <g id="Clip-2"></g>
                            <path d="M17.8597556,24.4571667 L17.8597556,15.7388333 C17.8597556,14.4488333 17.9296074,11.4296667 17.9296074,10.5138333 C17.5820519,11.3963333 16.8537185,13.0921667 16.2293111,14.4488333 L11.3056074,24.9996667 L6.38105185,14.4488333 C5.75664444,13.0921667 5.02831111,11.3963333 4.68160741,10.5138333 C4.68160741,11.4296667 4.75060741,14.4488333 4.75060741,15.7388333 L4.75060741,24.4571667 L-0.00017037037,24.4571667 L-0.00017037037,0.709666667 L4.68160741,0.709666667 L9.74501481,11.4638333 C10.3694222,12.7871667 11.0977556,14.5846667 11.4095333,15.433 C11.7213111,14.5505 12.4147185,12.8205 13.0391259,11.4638333 L17.9296074,0.709666667 L22.7144593,0.709666667 L22.7144593,24.4571667 L17.8597556,24.4571667 Z" id="Fill-1" fill="#564943" mask="url(#mask-2)"></path>
                        </g>
                        <mask id="mask-4" fill="white">
                            <use xlink:href="#path-3"></use>
                        </mask>
                        <g id="Clip-5"></g>
                        <polygon id="Fill-4" fill="#564943" mask="url(#mask-4)" points="34 25 39 25 39 1 34 1"></polygon>
                        <path d="M60.6329239,10.7371044 C60.152264,9.33153204 59.671604,7.89143098 59.4312741,7.00042108 C59.1909441,7.89143098 58.7102841,9.33153204 58.2296242,10.7371044 L56.6847663,15.0910941 L62.1777819,15.0910941 L60.6329239,10.7371044 Z M65.7135839,25 L63.8255179,19.6514141 L55.0370302,19.6514141 L53.1489643,25 L48,25 L57.2,1 L61.8683043,1 L71,25 L65.7135839,25 Z" id="Fill-6" fill="#564943" mask="url(#mask-4)"></path>
                        <path d="M95.2980311,24.4639769 L95.2980311,15.8497324 C95.2980311,14.5751338 95.3656854,11.5920132 95.3656854,10.687114 C95.0290643,11.5590778 94.3236452,13.2346645 93.7188824,14.5751338 L88.9500844,25 L84.1804613,14.5751338 C83.5756985,13.2346645 82.8702794,11.5590778 82.5344834,10.687114 C82.5344834,11.5920132 82.6013126,14.5751338 82.6013126,15.8497324 L82.6013126,24.4639769 L78,24.4639769 L78,1 L82.5344834,1 L87.4385899,11.6257719 C88.0433527,12.9333059 88.7487718,14.7093454 89.0507407,15.5475504 C89.3527095,14.6755867 90.0243015,12.9662413 90.6290643,11.6257719 L95.3656854,1 L100,1 L100,24.4639769 L95.2980311,24.4639769 Z" id="Fill-7" fill="#564943" mask="url(#mask-4)"></path>
                        <polygon id="Fill-8" fill="#564943" mask="url(#mask-4)" points="113 25 118 25 118 1 113 1"></polygon>
                        <path d="M137.556028,13 C135.42785,13 133.375551,12.3849348 132,11.5876857 L133.770835,9.061247 C134.730809,9.64283397 136.407235,10.2244209 137.631908,10.2244209 C138.931579,10.2244209 139.345392,10.0251087 139.345392,9.47699994 C139.345392,9.0441186 138.874228,8.77862843 137.104275,8.41270356 C133.920831,7.76416012 132.395284,6.99961072 132.395284,4.67326283 C132.395284,2.47927075 134.411406,1 137.593968,1 C139.835085,1 141.455041,1.4827094 142.849122,2.34613638 L141.078287,4.8725751 C139.910965,4.17498216 138.742761,3.77557906 137.40515,3.77557906 C136.313708,3.77557906 136.049892,4.07532602 136.049892,4.4903004 C136.049892,4.92240317 136.520173,5.12171544 138.215128,5.47129047 C141.530922,6.16966197 143,7.06656718 143,9.24343087 C143,11.903004 140.720943,13 137.556028,13" id="Fill-9" fill="#564943" mask="url(#mask-4)"></path>
                        <path d="M151.671917,3.70869303 L149.660083,3.70869303 L149.660083,6.40052198 L151.61536,6.40052198 C152.821921,6.40052198 153.300416,5.93716121 153.300416,5.02890986 C153.300416,4.24031319 152.860524,3.70869303 151.671917,3.70869303 M151.519301,9.10921502 L149.660083,9.10921502 L149.660083,13 L146,13 L146,1 L151.767975,1 C154.910961,1 157,2.0801044 157,4.97751456 C157,8.02911062 154.738595,9.10921502 151.519301,9.10921502" id="Fill-10" fill="#564943" mask="url(#mask-4)"></path>
                        <path d="M163.7498,7.46295925 C163.324195,5.92029713 163.135747,5.26902228 162.983231,4.46275848 C162.829917,5.26902228 162.641469,5.93716121 162.215864,7.46295925 L161.994677,8.25155591 L163.970987,8.25155591 L163.7498,7.46295925 Z M165.420282,13 L164.772691,10.8919896 L161.192973,10.8919896 L160.545382,13 L157,13 L161.329518,1 L164.670482,1 L169,13 L165.420282,13 Z" id="Fill-11" fill="#564943" mask="url(#mask-4)"></path>
                    </g>
                </g>
            </g>
        </g>
    </g>
</svg>