
<svg width="208px" height="20px" viewBox="0 0 208 20" version="1.1" xmlns="http://www.w3.org/2000/svg" xmlns:xlink="http://www.w3.org/1999/xlink">
    <!-- Generator: Sketch 47.1 (45422) - http://www.bohemiancoding.com/sketch -->
    <desc>Created with Sketch.</desc>
    <defs>
        <polygon id="path-1" points="17.7765333 0.568 0 0.568 0 19.9997333 17.7765333 19.9997333 17.7765333 0.568"></polygon>
        <polygon id="path-3" points="14.5558571 0.568 0.278 0.568 0.278 19.5664 14.5558571 19.5664 14.5558571 0.568"></polygon>
        <polygon id="path-5" points="0.5529375 0.568 14.9791875 0.568 14.9791875 19.5662667 0.5529375 19.5662667"></polygon>
        <polygon id="path-7" points="14.6491429 0.568 0.0812857143 0.568 0.0812857143 19.5664 14.6491429 19.5664 14.6491429 0.568"></polygon>
        <polygon id="path-9" points="14.5470625 0.568 0.1208125 0.568 0.1208125 19.5664667 14.5470625 19.5664667 14.5470625 0.568"></polygon>
        <polygon id="path-11" points="14.7924375 0.568 0.3649375 0.568 0.3649375 19.5664667 14.7924375 19.5664667 14.7924375 0.568"></polygon>
        <polygon id="path-13" points="18.8763643 0.568 0.368328571 0.568 0.368328571 19.5662 18.8763643 19.5662 18.8763643 0.568"></polygon>
        <polygon id="path-15" points="7.74830769 10.3333313 7.74830769 0.06070625 0.0502769231 0.06070625 0.0502769231 10.3333313 7.74830769 10.3333313"></polygon>
    </defs>
    <g id="Page-1" stroke="none" stroke-width="1" fill="none" fill-rule="evenodd">
        <g id="Landing-Desktop" transform="translate(-843.000000, -1787.000000)">
            <g id="Group-2" transform="translate(843.000000, 1787.000000)">
                <g id="Mulberry-street-logo---long">
                    <g id="Mulberry-street-logo">
                        <g id="Group-3">
                            <mask id="mask-2" fill="white">
                                <use xlink:href="#path-1"></use>
                            </mask>
                            <g id="Clip-2"></g>
                            <path d="M13.9772,19.5664 L13.9772,12.5910667 C13.9772,11.5597333 14.0318667,9.1444 14.0318667,8.41173333 C13.7598667,9.11706667 13.1898667,10.4737333 12.7012,11.5597333 L8.84786667,19.9997333 L4.99386667,11.5597333 C4.5052,10.4737333 3.9352,9.11706667 3.66386667,8.41173333 C3.66386667,9.1444 3.71786667,11.5597333 3.71786667,12.5910667 L3.71786667,19.5664 L-0.000133333333,19.5664 L-0.000133333333,0.567733333 L3.66386667,0.567733333 L7.62653333,9.17106667 C8.1152,10.2297333 8.6852,11.6677333 8.9292,12.3464 C9.1732,11.6404 9.71586667,10.2564 10.2045333,9.17106667 L14.0318667,0.567733333 L17.7765333,0.567733333 L17.7765333,19.5664 L13.9772,19.5664 Z" id="Fill-1" fill="#803351" mask="url(#mask-2)"></path>
                        </g>
                        <g id="Group-6" transform="translate(25.000000, 0.000000)" fill="#803351">
                            <path d="M7.50425,19.8646 C3.20425,19.8646 0.303625,16.7706 0.303625,11.2346 L0.303625,0.567933333 L3.8655,0.567933333 L3.8655,11.1799333 C3.8655,14.2199333 5.239875,16.1459333 7.50425,16.1459333 C9.768625,16.1459333 11.168,14.2732667 11.168,11.2346 L11.168,0.567933333 L14.7305,0.567933333 L14.7305,11.1799333 C14.7305,16.6886 12.033625,19.8646 7.50425,19.8646" id="Fill-4"></path>
                        </g>
                        <g id="Group-9" transform="translate(50.000000, 0.000000)">
                            <mask id="mask-4" fill="white">
                                <use xlink:href="#path-3"></use>
                            </mask>
                            <g id="Clip-8"></g>
                            <polygon id="Fill-7" fill="#803351" mask="url(#mask-4)" points="0.278 19.5664 0.278 0.567733333 4.34871429 0.567733333 4.34871429 15.8204 14.5558571 15.8204 14.5558571 19.5664"></polygon>
                        </g>
                        <g id="Group-12" transform="translate(69.000000, 0.000000)">
                            <mask id="mask-6" fill="white">
                                <use xlink:href="#path-5"></use>
                            </mask>
                            <g id="Clip-11"></g>
                            <path d="M8.7710625,11.0442667 L4.0385625,11.0442667 L4.0385625,15.9569333 L8.7710625,15.9569333 C10.5010625,15.9569333 11.3154375,14.9789333 11.3154375,13.4869333 C11.3154375,11.8582667 10.5010625,11.0442667 8.7710625,11.0442667 M8.5673125,4.06893333 L4.0385625,4.06893333 L4.0385625,7.67826667 L8.7454375,7.67826667 C10.2210625,7.67826667 10.7554375,6.94626667 10.7554375,5.8876 C10.7554375,4.69293333 10.1198125,4.06893333 8.5673125,4.06893333 M8.6435625,19.5662667 L0.5529375,19.5662667 L0.5529375,0.5676 L8.7198125,0.5676 C12.1804375,0.5676 14.3685625,2.33226667 14.3685625,5.58826667 C14.3685625,7.2176 13.6560625,8.5196 12.4860625,9.28026667 C13.9110625,9.95826667 14.9791875,11.3422667 14.9791875,13.4322667 C14.9791875,17.4216 12.4604375,19.5662667 8.6435625,19.5662667" id="Fill-10" fill="#803351" mask="url(#mask-6)"></path>
                        </g>
                        <g id="Group-15" transform="translate(94.000000, 0.000000)">
                            <mask id="mask-8" fill="white">
                                <use xlink:href="#path-7"></use>
                            </mask>
                            <g id="Clip-14"></g>
                            <polygon id="Fill-13" fill="#803351" mask="url(#mask-8)" points="0.0812857143 19.5664 0.0812857143 0.567733333 14.2134286 0.567733333 14.2134286 4.2864 4.152 4.2864 4.152 7.5704 9.99628571 7.5704 9.99628571 11.2610667 4.152 11.2610667 4.152 15.8477333 14.6491429 15.8477333 14.6491429 19.5664"></polygon>
                        </g>
                        <g id="Group-18" transform="translate(116.000000, 0.000000)">
                            <mask id="mask-10" fill="white">
                                <use xlink:href="#path-9"></use>
                            </mask>
                            <g id="Clip-17"></g>
                            <path d="M8.3383125,4.25913333 L3.6826875,4.25913333 L3.6826875,9.14446667 L8.3383125,9.14446667 C9.9920625,9.14446667 10.8833125,8.3298 10.8833125,6.67446667 C10.8833125,4.96513333 9.9164375,4.25913333 8.3383125,4.25913333 L8.3383125,4.25913333 Z M10.4501875,19.5664667 L7.2701875,12.7264667 L3.6826875,12.7264667 L3.6826875,19.5664667 L0.1208125,19.5664667 L0.1208125,0.5678 L8.4151875,0.5678 C11.7733125,0.5678 14.5470625,2.5498 14.5470625,6.59313333 C14.5470625,9.44246667 13.4020625,11.2344667 11.1376875,12.1838 L14.5470625,19.5664667 L10.4501875,19.5664667 Z" id="Fill-16" fill="#803351" mask="url(#mask-10)"></path>
                        </g>
                        <g id="Group-21" transform="translate(141.000000, 0.000000)">
                            <mask id="mask-12" fill="white">
                                <use xlink:href="#path-11"></use>
                            </mask>
                            <g id="Clip-20"></g>
                            <path d="M8.5836875,4.25913333 L3.9268125,4.25913333 L3.9268125,9.14446667 L8.5836875,9.14446667 C10.2374375,9.14446667 11.1274375,8.3298 11.1274375,6.67446667 C11.1274375,4.96513333 10.1605625,4.25913333 8.5836875,4.25913333 L8.5836875,4.25913333 Z M10.6955625,19.5664667 L7.5143125,12.7264667 L3.9268125,12.7264667 L3.9268125,19.5664667 L0.3649375,19.5664667 L0.3649375,0.5678 L8.6593125,0.5678 C12.0186875,0.5678 14.7924375,2.5498 14.7924375,6.59313333 C14.7924375,9.44246667 13.6474375,11.2344667 11.3830625,12.1838 L14.7924375,19.5664667 L10.6955625,19.5664667 Z" id="Fill-19" fill="#803351" mask="url(#mask-12)"></path>
                        </g>
                        <g id="Group-24" transform="translate(161.000000, 0.000000)">
                            <mask id="mask-14" fill="white">
                                <use xlink:href="#path-13"></use>
                            </mask>
                            <g id="Clip-23"></g>
                            <path d="M11.5566143,12.0482 L11.5566143,19.5662 L7.68807857,19.5662 L7.68807857,12.1295333 L0.368328571,0.567533333 L4.81568571,0.567533333 L7.55032857,5.07286667 C8.24043571,6.21353333 9.29018571,8.0862 9.64915,8.79153333 C10.0087929,8.0862 11.0320786,6.26686667 11.74865,5.07286667 L14.4839714,0.567533333 L18.8763643,0.567533333 L11.5566143,12.0482 Z" id="Fill-22" fill="#803351" mask="url(#mask-14)"></path>
                        </g>
                        <path d="M193.040748,11 C191.492981,11 190.000401,10.4867969 189,9.82307143 L190.28788,7.71705703 C190.986043,8.20236164 192.205262,8.68701745 193.095933,8.68701745 C194.041149,8.68701745 194.342103,8.52027509 194.342103,8.06416661 C194.342103,7.70343217 193.999439,7.48154156 192.7122,7.17660417 C190.396968,6.6368001 189.287479,5.9996756 189.287479,4.06105236 C189.287479,2.23207682 190.75375,1 193.06834,1 C194.698243,1 195.876394,1.40160903 196.89027,2.12178032 L195.60239,4.22714592 C194.753429,3.64516966 193.903826,3.31298255 192.931018,3.31298255 C192.137242,3.31298255 191.945376,3.56212288 191.945376,3.90858366 C191.945376,4.26866931 192.287399,4.43476286 193.520093,4.72542659 C195.931579,5.30805164 197,6.05547265 197,7.86952573 C197,10.0851878 195.342504,11 193.040748,11" id="Fill-25" fill="#803351"></path>
                        <g id="Group-29" transform="translate(200.000000, 1.000000)">
                            <mask id="mask-16" fill="white">
                                <use xlink:href="#path-15"></use>
                            </mask>
                            <g id="Clip-28"></g>
                            <polygon id="Fill-27" fill="#803351" mask="url(#mask-16)" points="5.17335385 2.54051875 5.17335385 10.3333313 2.62504615 10.3333313 2.62504615 2.54051875 0.0502769231 2.54051875 0.0502769231 0.06070625 7.74873846 0.06070625 7.74873846 2.54051875"></polygon>
                        </g>
                    </g>
                </g>
            </g>
        </g>
    </g>
</svg>