
<svg width="366px" height="70px" viewBox="0 0 366 70" version="1.1" xmlns="http://www.w3.org/2000/svg" xmlns:xlink="http://www.w3.org/1999/xlink">
    <!-- Generator: Sketch 47.1 (45422) - http://www.bohemiancoding.com/sketch -->
    <desc>Created with Sketch.</desc>
    <defs>
        <polygon id="path-1" points="31.2798615 1.0007619 0 1.0007619 0 35.2376254 31.2798615 35.2376254 31.2798615 1.0007619"></polygon>
        <polygon id="path-3" points="25.6127102 1.0007619 0.489173077 1.0007619 0.489173077 34.4741333 25.6127102 34.4741333 25.6127102 1.0007619"></polygon>
        <polygon id="path-5" points="0.972957332 1.0007619 26.3576088 1.0007619 26.3576088 34.4738984 0.972957332 34.4738984"></polygon>
        <polygon id="path-7" points="25.7768571 1.0007619 0.143031593 1.0007619 0.143031593 34.4741333 25.7768571 34.4741333 25.7768571 1.0007619"></polygon>
        <polygon id="path-9" points="25.597235 1.0007619 0.212583534 1.0007619 0.212583534 34.4742508 25.597235 34.4742508 25.597235 1.0007619"></polygon>
        <polygon id="path-11" points="26.0290006 1.0007619 0.642149639 1.0007619 0.642149639 34.4742508 26.0290006 34.4742508 26.0290006 1.0007619"></polygon>
        <polygon id="path-13" points="33.215141 1.0007619 0.648116621 1.0007619 0.648116621 34.473781 33.215141 34.473781 33.215141 1.0007619"></polygon>
        <polygon id="path-15" points="13.6340414 18.2063455 13.6340414 0.106958631 0.0884680473 0.106958631 0.0884680473 18.2063455 13.6340414 18.2063455"></polygon>
    </defs>
    <g id="Symbols" stroke="none" stroke-width="1" fill="none" fill-rule="evenodd">
        <g id="Mulberry-Street-Logo" transform="translate(0.000000, -1.000000)">
            <g id="Mulberry-Street">
                <path d="M89.363,70 L87.431,70 L85.931,66.976 L84.239,66.976 L84.239,70 L82.559,70 L82.559,61.6 L86.471,61.6 C88.055,61.6 89.363,62.476 89.363,64.264 C89.363,65.524 88.823,66.316 87.755,66.736 L89.363,70 Z M87.635,64.3 C87.635,63.544 87.179,63.232 86.435,63.232 L84.239,63.232 L84.239,65.392 L86.435,65.392 C87.215,65.392 87.635,65.032 87.635,64.3 Z M97.889,70 L97.889,68.356 L93.557,68.356 L93.557,66.328 L95.969,66.328 L95.969,64.696 L93.557,64.696 L93.557,63.244 L97.709,63.244 L97.709,61.6 L91.877,61.6 L91.877,70 L97.889,70 Z M106.583,67.456 C106.583,65.632 105.107,65.176 103.775,64.864 C102.443,64.552 102.083,64.384 102.083,63.856 C102.083,63.484 102.383,63.1 103.283,63.1 C104.051,63.1 104.651,63.412 105.191,63.964 L106.403,62.788 C105.611,61.96 104.651,61.468 103.343,61.468 C101.687,61.468 100.343,62.404 100.343,63.928 C100.343,65.584 101.423,66.076 102.971,66.436 C104.555,66.796 104.843,67.036 104.843,67.576 C104.843,68.212 104.375,68.488 103.379,68.488 C102.575,68.488 101.819,68.212 101.231,67.528 L100.019,68.608 C100.655,69.544 101.879,70.132 103.283,70.132 C105.575,70.132 106.583,69.052 106.583,67.456 Z M115.073,63.256 L115.073,61.6 L108.569,61.6 L108.569,63.256 L110.981,63.256 L110.981,70 L112.661,70 L112.661,63.256 L115.073,63.256 Z M124.883,70 L123.035,70 L122.375,68.128 L119.303,68.128 L118.643,70 L116.843,70 L120.059,61.6 L121.691,61.6 L124.883,70 Z M121.799,66.532 L121.259,65.008 C121.091,64.516 120.923,64.012 120.839,63.7 C120.755,64.012 120.587,64.516 120.419,65.008 L119.879,66.532 L121.799,66.532 Z M133.937,66.292 L133.937,61.6 L132.257,61.6 L132.257,66.316 C132.257,67.66 131.597,68.488 130.529,68.488 C129.461,68.488 128.813,67.636 128.813,66.292 L128.813,61.6 L127.133,61.6 L127.133,66.316 C127.133,68.764 128.501,70.132 130.529,70.132 C132.665,70.132 133.937,68.728 133.937,66.292 Z M143.591,70 L141.659,70 L140.159,66.976 L138.467,66.976 L138.467,70 L136.787,70 L136.787,61.6 L140.699,61.6 C142.283,61.6 143.591,62.476 143.591,64.264 C143.591,65.524 143.051,66.316 141.983,66.736 L143.591,70 Z M141.863,64.3 C141.863,63.544 141.407,63.232 140.663,63.232 L138.467,63.232 L138.467,65.392 L140.663,65.392 C141.443,65.392 141.863,65.032 141.863,64.3 Z M153.545,70 L151.697,70 L151.037,68.128 L147.965,68.128 L147.305,70 L145.505,70 L148.721,61.6 L150.353,61.6 L153.545,70 Z M150.461,66.532 L149.921,65.008 C149.753,64.516 149.585,64.012 149.501,63.7 C149.417,64.012 149.249,64.516 149.081,65.008 L148.541,66.532 L150.461,66.532 Z M162.659,70 L162.659,61.6 L161.003,61.6 L161.003,65.152 C161.003,65.62 161.027,66.676 161.027,66.988 C160.919,66.772 160.643,66.352 160.439,66.04 L157.463,61.6 L155.855,61.6 L155.855,70 L157.511,70 L157.511,66.304 C157.511,65.836 157.487,64.78 157.487,64.468 C157.595,64.684 157.871,65.104 158.075,65.416 L161.159,70 L162.659,70 Z M171.533,63.256 L171.533,61.6 L165.029,61.6 L165.029,63.256 L167.441,63.256 L167.441,70 L169.121,70 L169.121,63.256 L171.533,63.256 Z M179.933,70 L179.933,61.6 L178.253,61.6 L178.253,70 L179.933,70 Z M190.823,70 L190.823,61.6 L189.167,61.6 L187.475,65.404 C187.259,65.884 187.019,66.496 186.911,66.808 C186.803,66.508 186.551,65.872 186.335,65.404 L184.583,61.6 L182.963,61.6 L182.963,70 L184.607,70 L184.607,66.916 C184.607,66.46 184.583,65.392 184.583,65.068 C184.703,65.38 184.955,65.98 185.171,66.46 L186.875,70.192 L188.579,66.46 C188.795,65.98 189.047,65.38 189.167,65.068 C189.167,65.392 189.143,66.46 189.143,66.916 L189.143,70 L190.823,70 Z M203.927,63.256 L203.927,61.6 L197.423,61.6 L197.423,63.256 L199.835,63.256 L199.835,70 L201.515,70 L201.515,63.256 L203.927,63.256 Z M213.101,70 L213.101,61.6 L211.421,61.6 L211.421,64.816 L207.977,64.816 L207.977,61.6 L206.297,61.6 L206.297,70 L207.977,70 L207.977,66.472 L211.421,66.472 L211.421,70 L213.101,70 Z M222.023,70 L222.023,68.356 L217.691,68.356 L217.691,66.328 L220.103,66.328 L220.103,64.696 L217.691,64.696 L217.691,63.244 L221.843,63.244 L221.843,61.6 L216.011,61.6 L216.011,70 L222.023,70 Z M234.683,70 L234.683,68.344 L230.471,68.344 L230.471,61.6 L228.791,61.6 L228.791,70 L234.683,70 Z M238.781,70 L238.781,61.6 L237.101,61.6 L237.101,70 L238.781,70 Z M248.615,67.288 C248.615,69.052 247.427,70 245.627,70 L241.811,70 L241.811,61.6 L245.663,61.6 C247.295,61.6 248.327,62.38 248.327,63.82 C248.327,64.54 247.991,65.116 247.439,65.452 C248.111,65.752 248.615,66.364 248.615,67.288 Z M246.623,63.952 C246.623,63.424 246.323,63.148 245.591,63.148 L243.455,63.148 L243.455,64.744 L245.675,64.744 C246.371,64.744 246.623,64.42 246.623,63.952 Z M246.887,67.312 C246.887,66.592 246.503,66.232 245.687,66.232 L243.455,66.232 L243.455,68.404 L245.687,68.404 C246.503,68.404 246.887,67.972 246.887,67.312 Z M257.093,70 L257.093,68.356 L252.761,68.356 L252.761,66.328 L255.173,66.328 L255.173,64.696 L252.761,64.696 L252.761,63.244 L256.913,63.244 L256.913,61.6 L251.081,61.6 L251.081,70 L257.093,70 Z M266.435,70 L264.503,70 L263.003,66.976 L261.311,66.976 L261.311,70 L259.631,70 L259.631,61.6 L263.543,61.6 C265.127,61.6 266.435,62.476 266.435,64.264 C266.435,65.524 265.895,66.316 264.827,66.736 L266.435,70 Z M264.707,64.3 C264.707,63.544 264.251,63.232 263.507,63.232 L261.311,63.232 L261.311,65.392 L263.507,65.392 C264.287,65.392 264.707,65.032 264.707,64.3 Z M274.913,63.256 L274.913,61.6 L268.409,61.6 L268.409,63.256 L270.821,63.256 L270.821,70 L272.501,70 L272.501,63.256 L274.913,63.256 Z M284.507,61.6 L282.599,61.6 L281.411,63.592 C281.099,64.12 280.655,64.924 280.499,65.236 C280.343,64.924 279.887,64.096 279.587,63.592 L278.399,61.6 L276.467,61.6 L279.647,66.712 L279.647,70 L281.327,70 L281.327,66.676 L284.507,61.6 Z" id="Restaurant-im-The-Li" fill="#803351"></path>
                <g id="Mulberry-street-logo---long">
                    <g id="Mulberry-street-logo">
                        <g id="Group-3">
                            <mask id="mask-2" fill="white">
                                <use xlink:href="#path-1"></use>
                            </mask>
                            <g id="Clip-2"></g>
                            <path d="M24.5944962,34.4741333 L24.5944962,22.1842603 C24.5944962,20.3671492 24.6906885,16.1115619 24.6906885,14.820673 C24.2120731,16.0634032 23.2090923,18.4537206 22.3492269,20.3671492 L15.5688423,35.2376254 L8.78728462,20.3671492 C7.92741923,18.4537206 6.92443846,16.0634032 6.44699615,14.820673 C6.44699615,16.1115619 6.54201538,20.3671492 6.54201538,22.1842603 L6.54201538,34.4741333 L-0.000234615385,34.4741333 L-0.000234615385,1.00029206 L6.44699615,1.00029206 L13.4197654,16.158546 C14.2796308,18.0238159 15.2826115,20.5574349 15.7119577,21.753181 C16.1413038,20.5092762 17.0961885,18.0708 17.9560538,16.158546 L24.6906885,1.00029206 L31.2798615,1.00029206 L31.2798615,34.4741333 L24.5944962,34.4741333 Z" id="Fill-1" fill="#803351" mask="url(#mask-2)"></path>
                        </g>
                        <g id="Group-6" transform="translate(43.990385, 0.000000)" fill="#803351">
                            <path d="M13.2045937,34.9995333 C5.6382476,34.9995333 0.534263221,29.5482 0.534263221,19.7942952 L0.534263221,1.00064444 L6.80179327,1.00064444 L6.80179327,19.6979778 C6.80179327,25.0541683 9.22016466,28.4475968 13.2045937,28.4475968 C17.1890228,28.4475968 19.6513846,25.1481365 19.6513846,19.7942952 L19.6513846,1.00064444 L25.9200144,1.00064444 L25.9200144,19.6979778 C25.9200144,29.4037238 21.1745517,34.9995333 13.2045937,34.9995333" id="Fill-4"></path>
                        </g>
                        <g id="Group-9" transform="translate(87.980769, 0.000000)">
                            <mask id="mask-4" fill="white">
                                <use xlink:href="#path-3"></use>
                            </mask>
                            <g id="Clip-8"></g>
                            <polygon id="Fill-7" fill="#803351" mask="url(#mask-4)" points="0.489173077 34.4741333 0.489173077 1.00029206 7.65206456 1.00029206 7.65206456 27.8740381 25.6127102 27.8740381 25.6127102 34.4741333"></polygon>
                        </g>
                        <g id="Group-12" transform="translate(121.413462, 0.000000)">
                            <mask id="mask-6" fill="white">
                                <use xlink:href="#path-5"></use>
                            </mask>
                            <g id="Clip-11"></g>
                            <path d="M15.4336965,19.458946 L7.10631671,19.458946 L7.10631671,28.1145968 L15.4336965,28.1145968 C18.4778311,28.1145968 19.9108179,26.391454 19.9108179,23.7626921 C19.9108179,20.8931365 18.4778311,19.458946 15.4336965,19.458946 M15.0751749,7.16907302 L7.10631671,7.16907302 L7.10631671,13.5283746 L15.3886064,13.5283746 C17.9851388,13.5283746 18.9254333,12.2386603 18.9254333,10.3733905 C18.9254333,8.26850159 17.8069778,7.16907302 15.0751749,7.16907302 M15.2093456,34.4738984 L0.972957332,34.4738984 L0.972957332,1.00005714 L15.3435162,1.00005714 C21.4328852,1.00005714 25.2831436,4.10923175 25.2831436,9.84599365 C25.2831436,12.7167238 24.0294177,15.0107238 21.9706677,16.350946 C24.4781196,17.5455175 26.3576088,19.9839937 26.3576088,23.6663746 C26.3576088,30.6952 21.9255775,34.4738984 15.2093456,34.4738984" id="Fill-10" fill="#803351" mask="url(#mask-6)"></path>
                        </g>
                        <g id="Group-15" transform="translate(165.403846, 0.000000)">
                            <mask id="mask-8" fill="white">
                                <use xlink:href="#path-7"></use>
                            </mask>
                            <g id="Clip-14"></g>
                            <polygon id="Fill-13" fill="#803351" mask="url(#mask-8)" points="0.143031593 34.4741333 0.143031593 1.00029206 25.0101676 1.00029206 25.0101676 7.55222857 7.30592308 7.55222857 7.30592308 13.3383238 17.5896181 13.3383238 17.5896181 19.840927 7.30592308 19.840927 7.30592308 27.9221968 25.7768571 27.9221968 25.7768571 34.4741333"></polygon>
                        </g>
                        <g id="Group-18" transform="translate(204.115385, 0.000000)">
                            <mask id="mask-10" fill="white">
                                <use xlink:href="#path-9"></use>
                            </mask>
                            <g id="Clip-17"></g>
                            <path d="M14.672223,7.5041873 L6.48011358,7.5041873 L6.48011358,16.1116794 L14.672223,16.1116794 C17.5821869,16.1116794 19.1504441,14.6763143 19.1504441,11.7597746 C19.1504441,8.74809206 17.449116,7.5041873 14.672223,7.5041873 L14.672223,7.5041873 Z M18.3883107,34.4742508 L12.7927338,22.4228222 L6.48011358,22.4228222 L6.48011358,34.4742508 L0.212583534,34.4742508 L0.212583534,1.00040952 L14.8074934,1.00040952 C20.7165018,1.00040952 25.597235,4.49250476 25.597235,11.616473 C25.597235,16.636727 23.5824754,19.7940603 19.5980463,21.4666952 L25.597235,34.4742508 L18.3883107,34.4742508 Z" id="Fill-16" fill="#803351" mask="url(#mask-10)"></path>
                        </g>
                        <g id="Group-21" transform="translate(248.105769, 0.000000)">
                            <mask id="mask-12" fill="white">
                                <use xlink:href="#path-11"></use>
                            </mask>
                            <g id="Clip-20"></g>
                            <path d="M15.1039886,7.5041873 L6.90967969,7.5041873 L6.90967969,16.1116794 L15.1039886,16.1116794 C18.0139525,16.1116794 19.5800102,14.6763143 19.5800102,11.7597746 C19.5800102,8.74809206 17.8786821,7.5041873 15.1039886,7.5041873 L15.1039886,7.5041873 Z M18.8200763,34.4742508 L13.2222999,22.4228222 L6.90967969,22.4228222 L6.90967969,34.4742508 L0.642149639,34.4742508 L0.642149639,1.00040952 L15.2370595,1.00040952 C21.1482674,1.00040952 26.0290006,4.49250476 26.0290006,11.616473 C26.0290006,16.636727 24.014241,19.7940603 20.0298119,21.4666952 L26.0290006,34.4742508 L18.8200763,34.4742508 Z" id="Fill-19" fill="#803351" mask="url(#mask-12)"></path>
                        </g>
                        <g id="Group-24" transform="translate(283.298077, 0.000000)">
                            <mask id="mask-14" fill="white">
                                <use xlink:href="#path-13"></use>
                            </mask>
                            <g id="Clip-23"></g>
                            <path d="M20.3351963,21.227781 L20.3351963,34.473781 L13.5280613,34.473781 L13.5280613,21.3710825 L0.648116621,0.999939683 L8.47375467,0.999939683 L13.2856743,8.93790794 C14.4999975,10.947654 16.3471537,14.2471143 16.9787928,15.4898444 C17.6116259,14.2471143 19.4122152,11.0416222 20.6731053,8.93790794 L25.486219,0.999939683 L33.215141,0.999939683 L20.3351963,21.227781 Z" id="Fill-22" fill="#803351" mask="url(#mask-14)"></path>
                        </g>
                        <path d="M339.677469,19.3809524 C336.953996,19.3809524 334.327629,18.4767373 332.567308,17.3073163 L334.833481,13.5967195 C336.06198,14.45178 338.207336,15.3056974 339.774575,15.3056974 C341.43779,15.3056974 341.967355,15.0119133 341.967355,14.2082936 C341.967355,13.5727138 341.364397,13.1817637 339.099352,12.6444931 C335.025434,11.6934097 333.07316,10.570857 333.07316,7.15518749 C333.07316,3.93270678 335.653233,1.76190476 339.726022,1.76190476 C342.594024,1.76190476 344.667116,2.46950163 346.451149,3.73837484 L344.184975,7.44782852 C342.69113,6.42244179 341.196156,5.83715973 339.484387,5.83715973 C338.087648,5.83715973 337.750036,6.27612127 337.750036,6.88655217 C337.750036,7.52098878 338.351865,7.81362981 340.520933,8.32575161 C344.764221,9.35228147 346.644231,10.6691661 346.644231,13.8653548 C346.644231,17.7691405 343.727676,19.3809524 339.677469,19.3809524" id="Fill-25" fill="#803351"></path>
                        <g id="Group-29" transform="translate(351.923077, 1.761905)">
                            <mask id="mask-16" fill="white">
                                <use xlink:href="#path-15"></use>
                            </mask>
                            <g id="Clip-28"></g>
                            <polygon id="Fill-27" fill="#803351" mask="url(#mask-16)" points="9.10311302 4.47615208 9.10311302 18.2063455 4.6190716 18.2063455 4.6190716 4.47615208 0.0884680473 4.47615208 0.0884680473 0.106958631 13.6347994 0.106958631 13.6347994 4.47615208"></polygon>
                        </g>
                    </g>
                </g>
            </g>
        </g>
    </g>
</svg>