
<svg width="162px" height="14px" viewBox="0 0 162 14" version="1.1" xmlns="http://www.w3.org/2000/svg" xmlns:xlink="http://www.w3.org/1999/xlink">
    <!-- Generator: Sketch 47.1 (45422) - http://www.bohemiancoding.com/sketch -->
    <desc>Created with Sketch.</desc>
    <defs></defs>
    <g id="Page-1" stroke="none" stroke-width="1" fill="none" fill-rule="evenodd">
        <g id="Landing-Desktop" transform="translate(-399.000000, -2129.000000)" fill="#564943">
            <g id="The-Upper-West" transform="translate(399.000000, 2129.000000)">
                <path d="M9.276,2.254 L9.276,0.4 L0.042,0.4 L0.042,2.254 L3.714,2.254 L3.714,13 L5.604,13 L5.604,2.254 L9.276,2.254 Z M22.086,13 L22.086,0.4 L20.196,0.4 L20.196,5.494 L14.4,5.494 L14.4,0.4 L12.51,0.4 L12.51,13 L14.4,13 L14.4,7.348 L20.196,7.348 L20.196,13 L22.086,13 Z M34.5,13 L34.5,11.164 L28.002,11.164 L28.002,7.186 L31.62,7.186 L31.62,5.35 L28.002,5.35 L28.002,2.236 L34.23,2.236 L34.23,0.4 L26.112,0.4 L26.112,13 L34.5,13 Z M53.028,7.744 L53.028,0.4 L51.138,0.4 L51.138,7.78 C51.138,10.084 50.202,11.308 48.222,11.308 C46.332,11.308 45.342,10.03 45.342,7.654 L45.342,0.4 L43.452,0.4 L43.452,7.708 C43.452,11.182 45.072,13.198 48.186,13.198 C51.318,13.198 53.028,11.272 53.028,7.744 Z M66.288,4.342 C66.288,6.934 64.56,8.302 62.112,8.302 L58.818,8.302 L58.818,13 L56.964,13 L56.964,0.4 L62.238,0.4 C64.56,0.4 66.288,1.732 66.288,4.342 Z M64.362,4.342 C64.362,2.956 63.516,2.182 62.202,2.182 L58.818,2.182 L58.818,6.52 L62.202,6.52 C63.642,6.52 64.362,5.692 64.362,4.342 Z M78.792,4.342 C78.792,6.934 77.064,8.302 74.616,8.302 L71.322,8.302 L71.322,13 L69.468,13 L69.468,0.4 L74.742,0.4 C77.064,0.4 78.792,1.732 78.792,4.342 Z M76.866,4.342 C76.866,2.956 76.02,2.182 74.706,2.182 L71.322,2.182 L71.322,6.52 L74.706,6.52 C76.146,6.52 76.866,5.692 76.866,4.342 Z M90.36,13 L90.36,11.164 L83.862,11.164 L83.862,7.186 L87.48,7.186 L87.48,5.35 L83.862,5.35 L83.862,2.236 L90.09,2.236 L90.09,0.4 L81.972,0.4 L81.972,13 L90.36,13 Z M103.368,4.162 C103.368,6.178 102.306,7.42 100.596,7.852 L103.17,13 L100.992,13 L98.49,8.014 L95.646,8.014 L95.646,13 L93.792,13 L93.792,0.4 L99.318,0.4 C101.514,0.4 103.368,1.57 103.368,4.162 Z M101.46,4.216 C101.46,2.902 100.596,2.182 99.318,2.182 L95.646,2.182 L95.646,6.232 L99.318,6.232 C100.578,6.232 101.46,5.584 101.46,4.216 Z M125.64,0.4 L123.804,0.4 L122.274,8.536 C122.22,8.842 122.112,9.544 122.022,10.012 C121.95,9.562 121.806,8.896 121.716,8.554 L119.664,0.4 L118.044,0.4 L116.028,8.374 C115.938,8.752 115.758,9.598 115.686,10.012 C115.632,9.598 115.47,8.734 115.398,8.356 L113.886,0.4 L111.978,0.4 L114.552,13 L116.424,13 L118.476,4.864 C118.584,4.432 118.782,3.496 118.836,3.19 C118.89,3.496 119.088,4.432 119.196,4.864 L121.158,13 L123.066,13 L125.64,0.4 Z M137.316,13 L137.316,11.164 L130.818,11.164 L130.818,7.186 L134.436,7.186 L134.436,5.35 L130.818,5.35 L130.818,2.236 L137.046,2.236 L137.046,0.4 L128.928,0.4 L128.928,13 L137.316,13 Z M149.19,9.382 C149.19,7.132 147.642,6.34 145.158,5.584 C142.98,4.936 142.404,4.504 142.404,3.622 C142.404,2.776 143.034,2.056 144.51,2.056 C145.752,2.056 146.652,2.452 147.444,3.262 L148.776,1.912 C147.66,0.832 146.364,0.202 144.654,0.202 C142.332,0.202 140.496,1.534 140.496,3.712 C140.496,5.962 141.774,6.628 144.438,7.42 C146.544,8.05 147.282,8.536 147.282,9.508 C147.282,10.732 146.436,11.344 144.672,11.344 C143.484,11.344 142.242,10.768 141.396,9.85 L140.046,11.164 C141.108,12.406 142.692,13.198 144.528,13.198 C147.75,13.198 149.19,11.65 149.19,9.382 Z M161.208,2.254 L161.208,0.4 L151.974,0.4 L151.974,2.254 L155.646,2.254 L155.646,13 L157.536,13 L157.536,2.254 L161.208,2.254 Z"></path>
            </g>
        </g>
    </g>
</svg>