
<svg width="406px" height="423px" viewBox="0 0 406 423" version="1.1" xmlns="http://www.w3.org/2000/svg" xmlns:xlink="http://www.w3.org/1999/xlink">
    <!-- Generator: Sketch 47.1 (45422) - http://www.bohemiancoding.com/sketch -->
    <desc>Created with Sketch.</desc>
    <defs></defs>
    <g id="Page-1" stroke="none" stroke-width="1" fill="none" fill-rule="evenodd">
        <path d="M225.7515,29.9497 C225.1275,19.9907 224.6635,14.2637 223.5495,4.9247 C222.8905,-0.6033 219.8205,0.1967 219.8205,0.1967 C219.8205,0.1967 218.6695,74.2827 218.7515,83.2827 C218.7945,87.9917 218.2945,89.3667 215.7105,89.3667 C213.3775,89.3667 212.6275,89.1577 212.4195,83.9497 C212.1645,77.5797 209.9815,0.0427 209.9815,0.0427 L207.7515,0.0007 C207.7515,0.0007 207.7515,0.0197 207.7505,0.0587 C207.7115,2.4917 206.4605,80.3737 206.4605,84.3247 C206.4255,87.6227 205.8725,89.0457 204.2715,89.3977 C203.9735,89.4377 203.6485,89.4487 203.2935,89.4487 C201.1995,89.4487 200.3125,88.6367 200.3125,84.3247 C200.3125,80.3107 199.0215,0.0007 199.0215,0.0007 L196.7905,0.0427 C196.7905,0.0427 194.6075,77.5797 194.3535,83.9497 C194.1455,89.1577 193.3955,89.3667 191.0625,89.3667 C188.4785,89.3667 187.9785,87.9917 188.0215,83.2827 C188.1035,74.2827 186.9515,0.1967 186.9515,0.1967 C186.9515,0.1967 183.8825,-0.6033 183.2235,4.9247 C182.1085,14.2637 181.6455,19.9907 181.0215,29.9497 C180.4375,39.2697 176.6885,90.9497 177.0215,106.6167 C177.3545,122.2837 184.8865,131.8107 189.6885,138.9497 C194.6055,146.2617 196.4095,151.0127 196.4805,160.6367 C196.5435,169.0737 193.6455,245.8367 193.4185,260.5657 C193.0845,282.2827 191.4705,412.8587 191.4705,416.1847 C191.4705,419.5107 190.9955,422.4987 195.7465,422.4987 L211.4275,422.4987 C214.2785,422.4987 215.2285,421.1997 215.2285,416.4487 C215.2285,411.6967 212.7515,277.9497 213.0845,260.6167 C213.3305,247.7897 210.1165,167.2007 210.0845,159.9497 C210.0435,150.7617 212.0845,145.9497 217.0845,138.9497 C222.0845,131.9497 229.4185,122.2837 229.7515,106.6167 C230.0845,90.9497 226.3355,39.2697 225.7515,29.9497" id="fork" fill="#803351"></path>
        <path d="M89.740797,199.002217 C51.1885381,182.000097 43.6379299,180.093662 15.442532,163.267306 C-1.03533686,153.433539 -3.4170053,141.61045 4.00972424,136 C11.1827022,137.096524 192.838868,197.829794 192.838868,197.829794 C192.838868,197.829794 241.37835,213.595578 253.567418,217.555249 C265.756485,221.513922 396.612382,262.019413 401.126963,263.486439 C405.642542,264.952466 406.581623,266.254714 405.702484,268.963069 C404.822345,271.671424 402.327787,279.344099 400.861223,283.856027 C399.394659,288.368954 396.702294,286.996801 393.543387,285.970182 C390.382481,284.943564 262.437734,242.039301 246.388445,236.477785 C232.484057,231.658271 213.221914,225.769196 206.848154,223.8338 C199.779074,221.687688 196.609177,224.467947 192.723981,227.114386 C188.776845,229.799772 186.116449,234.051051 170.82342,229.096718 C159.082914,225.294834 89.740797,199.002217 89.740797,199.002217" id="knife" fill="#803351"></path>
        <path d="M242.128621,178.342801 C276.317621,137.026801 325.197621,67.4988005 334.550621,53.4018005 C336.389621,50.6308005 338.646621,48.5738005 334.802621,45.7808005 C330.958621,42.9878005 324.881621,38.5728005 322.574621,36.8968005 C320.267621,35.2198005 318.827621,35.7798005 315.943621,39.5558005 C302.492621,57.1808005 255.017621,120.340801 226.328621,165.651801 C219.466621,176.491801 184.170621,227.494801 171.190621,246.493801 C171.190621,246.493801 160.928621,260.050801 150.341621,261.010801 C139.755621,261.971801 116.167621,260.382801 94.3676208,290.387801 C75.7536208,316.006801 56.8746208,366.663801 78.9886208,382.729801 C100.292621,398.207801 142.836621,371.747801 163.212621,343.702801 C187.272621,310.588801 176.013621,287.491801 174.685621,279.110801 C173.359621,270.729801 179.210621,260.973801 183.056621,255.114801 C194.397621,237.833801 232.015621,190.563801 242.128621,178.342801 Z" id="spoon" fill="#803351"></path>
    </g>
</svg>