
<svg width="218px" height="23px" viewBox="0 0 218 23" version="1.1" xmlns="http://www.w3.org/2000/svg" xmlns:xlink="http://www.w3.org/1999/xlink">
    <!-- Generator: Sketch 47.1 (45422) - http://www.bohemiancoding.com/sketch -->
    <desc>Created with Sketch.</desc>
    <defs></defs>
    <g id="Symbols" stroke="none" stroke-width="1" fill="none" fill-rule="evenodd">
        <g id="Footer" transform="translate(-612.000000, -33.000000)" fill="#F7F3F3">
            <g id="Liberty-Logo-White">
                <g transform="translate(612.000000, 33.000000)">
                    <g id="liberty-logo-copy">
                        <g id="Gruppe_1" transform="translate(53.000000, 0.000000)" fill-rule="nonzero">
                            <path d="M16.3475543,22.7387436 L16.3475543,18.3722821 L5.08630435,18.3722821 L5.08630435,0.58974359 L0.595434783,0.58974359 L0.595434783,22.7387436 L16.3475543,22.7387436 Z M27.8634783,0.58974359 L23.3708152,0.58974359 L23.3708152,22.7387436 L27.8634783,22.7387436 L27.8634783,0.58974359 Z M57.5945652,15.5875128 C57.6666442,13.4868117 56.4157855,11.5605586 54.4511957,10.7468974 C55.9706123,9.83823033 56.8773915,8.19380968 56.825163,6.44176923 C56.825163,2.64382051 54.0661957,0.587384615 49.7044565,0.587384615 L39.4080978,0.587384615 L39.4080978,22.7387436 L49.6076087,22.7387436 C54.418913,22.7387436 57.5939674,20.2382308 57.5939674,15.5875128 L57.5945652,15.5875128 Z M52.2697283,6.79089744 C52.2697283,8.02582051 51.5965761,8.88035897 49.7355435,8.88035897 L43.8021196,8.88035897 L43.8021196,4.67253846 L49.5113587,4.67253846 C51.4680435,4.67253846 52.2697283,5.40028205 52.2697283,6.79266667 L52.2697283,6.79089744 Z M52.9757609,15.6506154 C52.9757609,17.3915385 51.9492935,18.5297436 49.7678261,18.5297436 L43.8021196,18.5297436 L43.8021196,12.8039231 L49.7678261,12.8039231 C51.9492935,12.8039231 52.9757609,13.7528205 52.9757609,15.6506154 L52.9757609,15.6506154 Z M84.0232609,22.7387436 L84.0232609,18.4041282 L72.4433696,18.4041282 L72.4433696,13.0563333 L78.8927174,13.0563333 L78.8927174,8.75120513 L72.4433696,8.75120513 L72.4433696,4.92317949 L83.5432065,4.92317949 L83.5432065,0.587974359 L67.9548913,0.587974359 L67.9548913,22.7387436 L84.0232609,22.7387436 Z M112.761957,22.7387436 L108.463587,14.1326154 C111.319402,13.0244872 112.762554,10.9362051 112.762554,7.61417949 C112.762554,2.89623077 109.266467,0.58974359 105.033261,0.58974359 L94.5748913,0.58974359 L94.5748913,22.7387436 L99.0645652,22.7387436 L99.0645652,14.7642308 L103.58712,14.7642308 L107.596141,22.7381538 L112.761957,22.7387436 Z M108.142554,7.70912821 C108.142554,9.63935897 107.021033,10.5882564 104.935815,10.5882564 L99.0645652,10.5882564 L99.0645652,4.89251282 L104.93462,4.89251282 C106.922989,4.89251282 108.141359,5.71815385 108.141359,7.70912821 L108.142554,7.70912821 Z M137.325435,4.95620513 L137.325435,0.592102564 L119.944239,0.592102564 L119.944239,4.95620513 L126.391196,4.95620513 L126.391196,22.7387436 L130.881467,22.7387436 L130.881467,4.95620513 L137.325435,4.95620513 Z M164.562989,0.592102564 L159.464728,0.592102564 L156.289076,5.84553846 C155.45212,7.23733333 154.267826,9.35805128 153.850543,10.1795641 C153.432065,9.35805128 152.215489,7.17187179 151.412609,5.84553846 L148.238152,0.592102564 L143.07413,0.592102564 L151.575815,14.0689231 L151.575815,22.7381538 L156.066685,22.7381538 L156.066685,13.9745641 L164.562989,0.592102564 Z" id="Pfad_1"></path>
                        </g>
                        <g id="Gruppe_2" transform="translate(0.000000, 1.000000)" fill-rule="nonzero">
                            <path d="M30.6,0 L30.6,10.80915 L39.8387879,10.80915 L39.8387879,8.2929 L33.8660606,8.2929 L33.8660606,6.4405 L37.3890909,6.4405 L37.3890909,3.95285 L33.8660606,3.95285 L33.8660606,2.51735 L39.72,2.51735 L39.72,0 L30.6,0 Z M21.5248485,0 L21.5248485,3.938 L17.8145455,3.938 L17.8145455,0 L14.4454545,0 L14.4454545,10.80915 L17.8145455,10.80915 L17.8145455,6.545 L21.5242424,6.545 L21.5242424,10.80695 L24.8939394,10.80695 L24.8939394,0 L21.5248485,0 Z M0,0 L0,2.61085 L3.33333333,2.61085 L3.33333333,10.80915 L6.63333333,10.80915 L6.63333333,2.61085 L9.96666667,2.61085 L9.96666667,0 L0,0 Z" id="Pfad_2"></path>
                        </g>
                    </g>
                </g>
            </g>
        </g>
    </g>
</svg>