
<svg width="375px" height="72px" viewBox="0 0 375 72" version="1.1" xmlns="http://www.w3.org/2000/svg" xmlns:xlink="http://www.w3.org/1999/xlink">
    <!-- Generator: Sketch 47.1 (45422) - http://www.bohemiancoding.com/sketch -->
    <desc>Created with Sketch.</desc>
    <defs></defs>
    <g id="Page-1" stroke="none" stroke-width="1" fill="none" fill-rule="evenodd">
        <g id="Liberty-Logo" transform="translate(0.000000, -1.000000)" fill="#FFFFFF">
            <g id="liberty-logo">
                <g id="Gruppe_1" transform="translate(91.791045, 0.000000)" fill-rule="nonzero">
                    <path d="M28.0592351,39.545641 L28.0592351,31.9517949 L8.73022388,31.9517949 L8.73022388,1.02564103 L1.02201493,1.02564103 L1.02201493,39.545641 L28.0592351,39.545641 Z M47.8253731,1.02564103 L40.1140858,1.02564103 L40.1140858,39.545641 L47.8253731,39.545641 L47.8253731,1.02564103 Z M98.8563433,27.1087179 C98.9800609,23.4553248 96.8330647,20.1053193 93.4610075,18.6902564 C96.0689613,17.1099658 97.6253735,14.2501038 97.5357276,11.2030769 C97.5357276,4.59794872 92.8001866,1.02153846 85.3136194,1.02153846 L67.6407649,1.02153846 L67.6407649,39.545641 L85.1473881,39.545641 C93.405597,39.545641 98.8553172,35.1969231 98.8553172,27.1087179 L98.8563433,27.1087179 Z M89.7166978,11.8102564 C89.7166978,13.9579487 88.5612873,15.4441026 85.3669776,15.4441026 L75.1827425,15.4441026 L75.1827425,8.12615385 L84.9821828,8.12615385 C88.3406716,8.12615385 89.7166978,9.39179487 89.7166978,11.8133333 L89.7166978,11.8102564 Z M90.9285448,27.2184615 C90.9285448,30.2461538 89.1666978,32.225641 85.4223881,32.225641 L75.1827425,32.225641 L75.1827425,22.2676923 L85.4223881,22.2676923 C89.1666978,22.2676923 90.9285448,23.9179487 90.9285448,27.2184615 L90.9285448,27.2184615 Z M144.21903,39.545641 L144.21903,32.0071795 L124.343097,32.0071795 L124.343097,22.7066667 L135.412873,22.7066667 L135.412873,15.2194872 L124.343097,15.2194872 L124.343097,8.56205128 L143.395056,8.56205128 L143.395056,1.0225641 L116.638993,1.0225641 L116.638993,39.545641 L144.21903,39.545641 Z M193.546642,39.545641 L186.168843,24.5784615 C191.070616,22.6512821 193.547668,19.0194872 193.547668,13.2420513 C193.547668,5.03692308 187.546922,1.02564103 180.28097,1.02564103 L162.330037,1.02564103 L162.330037,39.545641 L170.036194,39.545641 L170.036194,25.6769231 L177.798787,25.6769231 L184.679944,39.5446154 L193.546642,39.545641 Z M185.617817,13.4071795 C185.617817,16.7641026 183.692817,18.414359 180.113713,18.414359 L170.036194,18.414359 L170.036194,8.50871795 L180.11166,8.50871795 C183.524534,8.50871795 185.615765,9.94461538 185.615765,13.4071795 L185.617817,13.4071795 Z M235.707836,8.61948718 L235.707836,1.02974359 L205.87444,1.02974359 L205.87444,8.61948718 L216.940112,8.61948718 L216.940112,39.545641 L224.647295,39.545641 L224.647295,8.61948718 L235.707836,8.61948718 Z M282.458862,1.02974359 L273.708116,1.02974359 L268.257369,10.1661538 C266.820802,12.5866667 264.78806,16.2748718 264.071828,17.7035897 C263.353545,16.2748718 261.265392,12.4728205 259.887313,10.1661538 L254.438619,1.02974359 L245.575,1.02974359 L260.167444,24.4676923 L260.167444,39.5446154 L267.875653,39.5446154 L267.875653,24.3035897 L282.458862,1.02974359 Z" id="Pfad_1"></path>
                </g>
                <g id="Gruppe_2" transform="translate(0.000000, 1.111111)" fill-rule="nonzero">
                    <path d="M52.2369403,0 L52.2369403,19.653 L68.0083786,19.653 L68.0083786,15.078 L57.8123982,15.078 L57.8123982,11.71 L63.8265265,11.71 L63.8265265,7.187 L57.8123982,7.187 L57.8123982,4.577 L67.805597,4.577 L67.805597,0 L52.2369403,0 Z M36.744844,0 L36.744844,7.16 L30.4110244,7.16 L30.4110244,0 L24.6596845,0 L24.6596845,19.653 L30.4110244,19.653 L30.4110244,11.9 L36.7438094,11.9 L36.7438094,19.649 L42.4961839,19.649 L42.4961839,0 L36.744844,0 Z M0,0 L0,4.747 L5.69029851,4.747 L5.69029851,19.653 L11.323694,19.653 L11.323694,4.747 L17.0139925,4.747 L17.0139925,0 L0,0 Z" id="Pfad_2"></path>
                </g>
            </g>
        </g>
        <path d="M132.252,68.79 C132.252,70.778 131.034,71.8 128.892,71.8 L125,71.8 L125,62 L129.032,62 C130.74,62 131.846,62.896 131.846,64.548 C131.846,65.542 131.314,66.158 130.6,66.508 C131.37,66.718 132.252,67.432 132.252,68.79 Z M130.376,64.632 C130.376,63.904 129.998,63.344 129.018,63.344 L126.386,63.344 L126.386,65.878 L129.018,65.878 C129.984,65.878 130.376,65.276 130.376,64.632 Z M130.782,68.832 C130.782,67.824 130.152,67.208 129.046,67.208 L126.386,67.208 L126.386,70.456 L129.004,70.456 C130.306,70.456 130.782,69.798 130.782,68.832 Z M143.778,64.926 C143.778,66.494 142.952,67.46 141.622,67.796 L143.624,71.8 L141.93,71.8 L139.984,67.922 L137.772,67.922 L137.772,71.8 L136.33,71.8 L136.33,62 L140.628,62 C142.336,62 143.778,62.91 143.778,64.926 Z M142.294,64.968 C142.294,63.946 141.622,63.386 140.628,63.386 L137.772,63.386 L137.772,66.536 L140.628,66.536 C141.608,66.536 142.294,66.032 142.294,64.968 Z M154.45,71.8 L154.45,70.372 L149.396,70.372 L149.396,67.278 L152.21,67.278 L152.21,65.85 L149.396,65.85 L149.396,63.428 L154.24,63.428 L154.24,62 L147.926,62 L147.926,71.8 L154.45,71.8 Z M167.18,71.8 L167.18,62 L165.612,62 L163.456,67.222 C163.218,67.796 162.938,68.496 162.798,68.902 C162.672,68.496 162.364,67.782 162.126,67.222 L159.928,62 L158.416,62 L158.416,71.8 L159.802,71.8 L159.802,66.62 C159.802,66.032 159.788,65.178 159.774,64.898 C159.886,65.178 160.166,65.878 160.404,66.438 L162.756,71.954 L165.136,66.438 C165.374,65.878 165.654,65.178 165.766,64.898 C165.752,65.178 165.738,66.032 165.738,66.62 L165.738,71.8 L167.18,71.8 Z M178.132,71.8 L178.132,70.372 L173.078,70.372 L173.078,67.278 L175.892,67.278 L175.892,65.85 L173.078,65.85 L173.078,63.428 L177.922,63.428 L177.922,62 L171.608,62 L171.608,71.8 L178.132,71.8 Z M189.546,64.926 C189.546,66.494 188.72,67.46 187.39,67.796 L189.392,71.8 L187.698,71.8 L185.752,67.922 L183.54,67.922 L183.54,71.8 L182.098,71.8 L182.098,62 L186.396,62 C188.104,62 189.546,62.91 189.546,64.926 Z M188.062,64.968 C188.062,63.946 187.39,63.386 186.396,63.386 L183.54,63.386 L183.54,66.536 L186.396,66.536 C187.376,66.536 188.062,66.032 188.062,64.968 Z M201.142,71.8 L201.142,62 L199.672,62 L199.672,65.962 L195.164,65.962 L195.164,62 L193.694,62 L193.694,71.8 L195.164,71.8 L195.164,67.404 L199.672,67.404 L199.672,71.8 L201.142,71.8 Z M213.606,71.8 L212.038,71.8 L211.212,69.476 L207.292,69.476 L206.48,71.8 L204.954,71.8 L208.482,62 L210.036,62 L213.606,71.8 Z M210.764,68.16 L209.98,65.906 C209.742,65.206 209.35,64.072 209.238,63.652 C209.126,64.072 208.776,65.192 208.524,65.92 L207.74,68.16 L210.764,68.16 Z M225.118,62 L223.55,62 L221.534,68.23 C221.352,68.804 221.072,69.686 220.988,70.036 C220.904,69.686 220.624,68.818 220.442,68.244 L218.398,62 L216.802,62 L220.204,71.8 L221.758,71.8 L225.118,62 Z M235.454,71.8 L235.454,70.372 L230.4,70.372 L230.4,67.278 L233.214,67.278 L233.214,65.85 L230.4,65.85 L230.4,63.428 L235.244,63.428 L235.244,62 L228.93,62 L228.93,71.8 L235.454,71.8 Z M246.868,71.8 L246.868,62 L245.44,62 L245.44,67.054 C245.44,67.6 245.454,69 245.454,69.364 C245.314,69.112 244.894,68.384 244.642,67.978 L240.918,62 L239.42,62 L239.42,71.8 L240.848,71.8 L240.848,66.718 C240.848,66.172 240.834,64.814 240.834,64.45 C240.988,64.702 241.324,65.29 241.562,65.654 L245.468,71.8 L246.868,71.8 Z" id="Bremerhaven-Copy" fill="#FFFFFF"></path>
    </g>
</svg>