
<svg width="87px" height="92px" viewBox="0 0 87 92" version="1.1" xmlns="http://www.w3.org/2000/svg" xmlns:xlink="http://www.w3.org/1999/xlink">
    <!-- Generator: Sketch 47.1 (45422) - http://www.bohemiancoding.com/sketch -->
    <desc>Created with Sketch.</desc>
    <defs>
        <polygon id="path-1" points="2.06737223e-16 92 2.06737223e-16 0 87 0 87 92"></polygon>
    </defs>
    <g id="Symbols" stroke="none" stroke-width="1" fill="none" fill-rule="evenodd">
        <g id="Mulberry-Logo-Utinsels">
            <g id="Page-1">
                <mask id="mask-2" fill="white">
                    <use xlink:href="#path-1"></use>
                </mask>
                <g id="Clip-2"></g>
                <path d="M85.7537542,39.0323931 C84.7757341,39.0323931 57.2324245,39.5397732 53.6652055,39.4706676 C53.015625,39.4579377 51.5121015,39.4906719 49.6016779,39.5434103 C62.3615562,29.9977538 81.5880453,15.6365326 81.8781669,15.4092118 C82.2978398,15.0782326 81.3161703,13.8161473 80.8983221,14.1034809 C80.6154992,14.2998861 61.6718331,27.6208871 48.6163591,36.7573661 C51.5029782,28.2355626 57.0791527,11.6702386 57.2470218,11.1555843 C57.4586829,10.5081745 57.7415059,9.95351169 56.8127517,9.65344819 C55.8803482,9.35156612 54.2983641,8.83873031 53.7400168,8.65869221 C53.1816695,8.47683554 52.9134438,8.67142218 52.6105495,9.59889119 C52.3861158,10.2899465 47.7022022,25.3513159 44.9852768,34.0440646 C39.932781,19.3245859 33.4898909,0.515150569 33.3731124,0.200538531 C33.1869966,-0.301385875 31.6779992,0.238728432 31.825797,0.727922872 C31.9225042,1.04799061 38.4894715,22.1833727 43.1606124,37.3283961 C42.1771183,36.5427753 41.3669673,35.8880913 40.8597106,35.4698209 C32.353125,28.4537906 18.0349832,18.4207582 15.1337668,16.5021703 C14.5626468,16.1239085 14.1393247,15.6619925 13.5645554,16.4494319 C12.9879614,17.2386899 12.0792785,18.4862266 11.7344169,18.9590539 C11.3895554,19.4336999 11.5045092,19.7283077 12.2818163,20.3211604 C15.9110738,23.0817446 28.9172819,32.8238064 38.2467911,38.7123253 C38.617198,38.9451019 39.2302852,39.3506422 39.9893456,39.8580224 C36.4786913,39.9798663 33.5245596,40.0853432 32.9370176,40.0871618 C31.0448406,40.0962546 30.0540478,39.6761657 28.6125629,38.6504941 C27.171078,37.6248225 25.1803691,36.1190492 21.9543624,36.0499437 C18.7283557,35.9826567 8.08691275,36.7519104 6.16736577,36.8737544 C4.11644295,36.9992355 2.93770973,37.0956196 1.01451342,37.3229404 C-0.124077181,37.4593329 0.0401426174,38.088557 0.0401426174,38.088557 C0.0401426174,38.088557 15.2961619,38.3249706 17.1481963,38.3086035 C18.1189178,38.2995107 18.4017408,38.4013504 18.4017408,38.9323719 C18.4017408,39.4106549 18.3579488,39.5652331 17.2868708,39.6070602 C15.9749371,39.6597986 0.00912332215,40.1089846 0.00912332215,40.1089846 L0,40.5654448 C0,40.5654448 16.5369337,40.8309555 17.3653314,40.8309555 C18.0897232,40.8400484 18.3634228,40.980078 18.4090394,41.3656141 C18.4108641,41.403804 18.4199874,41.4365382 18.4199874,41.4801838 C18.4199874,41.9111841 18.2502936,42.0930408 17.3653314,42.0930408 C16.5369337,42.0930408 0,42.356733 0,42.356733 L0.00912332215,42.8150118 C0.00912332215,42.8150118 15.9749371,43.2623792 17.2868708,43.3151176 C18.3579488,43.3587632 18.4017408,43.5115228 18.4017408,43.9916244 C18.4017408,44.5208273 18.1189178,44.6244857 17.1481963,44.6153928 C15.2961619,44.6008443 0.0401426174,44.8354394 0.0401426174,44.8354394 C0.0401426174,44.8354394 -0.124077181,45.4646635 1.01451342,45.5992374 C2.93770973,45.8283768 4.11644295,45.9229423 6.16736577,46.0520605 C8.08691275,46.1720859 18.7283557,46.9413396 21.9543624,46.8740526 C25.1803691,46.8049471 27.1400587,45.2591654 28.6125629,44.2735023 C30.1179111,43.2641978 31.0941065,42.8932102 33.0756921,42.8786616 C33.7307466,42.8750245 36.3801594,42.9550414 39.5897441,43.0605183 C38.0223574,44.1498397 36.9512794,44.8881778 36.6064178,45.1118615 C30.2127936,49.2745607 13.2178691,61.6990083 12.6613465,62.099093 C12.1102978,62.5009962 9.4079698,64.3377486 9.98273909,65.125188 C10.5593331,65.9144459 10.8822987,66.3581762 11.2271602,66.8328221 C11.8895134,67.7402869 14.1557466,65.8944417 14.9458263,65.3234117 C15.7377307,64.7505632 31.1287752,53.5572852 38.5697567,47.8178888 C38.8434564,47.606935 39.7904572,46.8922383 41.2118708,45.8265582 C40.1444421,49.0999783 39.0733641,52.3861283 39.0733641,52.3861283 C39.0733641,52.3861283 26.5506921,89.7031168 26.3244337,91.1761558 C27.481271,92.7019333 29.9190227,92.2127388 31.9462248,88.8283862 C35.4149119,83.0362513 35.8090394,81.4850139 39.3142198,73.565156 C39.3142198,73.565156 44.7352978,59.3203231 45.5199035,56.9089036 C46.5417156,53.7664204 45.664052,53.2208504 45.1111787,52.4097697 C44.565604,51.6114189 43.9926594,50.960372 44.4342282,49.5073372 C44.6568372,48.7817291 45.13125,47.2304917 45.680474,45.5119462 C46.7916946,49.1454424 47.5635277,51.6859801 47.7277475,52.2879257 C49.7221057,59.6367537 56.3273909,79.5864303 56.539052,80.2356586 C56.7507131,80.8848869 57.6685193,84.0128216 58.5972735,83.7109395 C59.5278523,83.4090575 60.0533557,83.2417493 60.611703,83.0580741 C61.682781,82.714365 60.6244757,79.9956078 60.3215814,79.0663202 C60.0186871,78.1406698 54.092177,60.0913954 50.9154362,51.2677098 C50.7548658,50.8239795 50.0925126,48.9035731 49.1181418,46.0738833 C51.4190436,47.6505806 53.548427,49.1108897 54.8932047,50.0274473 C54.8932047,50.0274473 57.6849413,52.1333475 57.8838297,54.3065347 C58.0808935,56.4797219 57.7524539,61.3189279 63.9325923,65.7944205 C69.2095218,69.6134105 79.637479,73.4887762 82.9455956,68.9496337 C86.1332844,64.5777994 80.6866611,55.8468607 74.9115982,51.6641573 C68.0910025,46.7267487 63.335927,49.038147 61.6116191,49.310932 C59.8836619,49.5818984 57.876531,48.3816444 56.6704279,47.5923865 C55.3749161,46.7449344 53.2583054,45.1809671 50.9738255,43.4369616 C52.1635067,43.4733329 53.1141569,43.5006114 53.6524329,43.5078857 C58.1246854,43.5751727 85.0147651,43.9079704 85.6990143,43.9079704 C86.3832634,43.9079704 87,44.0043544 87,43.0296027 L87,39.8107396 C87,39.2269797 86.7299497,39.0323931 85.7537542,39.0323931" id="Fill-1" fill="#803351" mask="url(#mask-2)"></path>
            </g>
        </g>
    </g>
</svg>