
<svg width="191px" height="18px" viewBox="0 0 191 18" version="1.1" xmlns="http://www.w3.org/2000/svg" xmlns:xlink="http://www.w3.org/1999/xlink">
    <!-- Generator: Sketch 47.1 (45422) - http://www.bohemiancoding.com/sketch -->
    <desc>Created with Sketch.</desc>
    <defs></defs>
    <g id="Page-1" stroke="none" stroke-width="1" fill="none" fill-rule="evenodd">
        <g id="Landing-Desktop" transform="translate(-367.000000, -1787.000000)" fill="#1A171B">
            <g id="New-York-Bar-Logo" transform="translate(367.000000, 1787.000000)">
                <path d="M165.540862,6.28423237 L163.484398,6.28423237 L163.484398,8.03279347 L165.527723,8.03279347 C166.169,8.03279347 166.462423,7.65995181 166.462423,7.14556284 C166.462423,6.61852496 166.155236,6.28423237 165.540862,6.28423237 M165.434504,2.96720653 L163.484398,2.96720653 L163.484398,4.38147504 L165.434504,4.38147504 C166.035739,4.38147504 166.249707,4.0983804 166.249707,3.67434078 C166.249707,3.27559898 166.048878,2.96720653 165.434504,2.96720653 M165.488308,10 L161,10 L161,1 L165.513959,1 C167.838195,1 168.786033,1.83543033 168.786033,3.34004819 C168.786033,4.31702583 168.292406,4.75431669 167.664894,5.1012582 C168.506374,5.44880203 169,6.07883817 169,7.09436488 C169,8.932673 167.838195,10 165.488308,10" id="Fill-1"></path>
                <path d="M176.062013,5.84721943 C175.742831,4.69022285 175.602103,4.20176671 175.487724,3.59706886 C175.372147,4.20176671 175.231419,4.70287091 174.912236,5.84721943 L174.746357,6.43866693 L176.227893,6.43866693 L176.062013,5.84721943 Z M177.314791,10 L176.82913,8.41899217 L174.145119,8.41899217 L173.659458,10 L171,10 L174.246923,1 L176.753077,1 L180,10 L177.314791,10 Z" id="Fill-3"></path>
                <path d="M187.107433,3.03151978 L185.547158,3.03151978 L185.547158,4.99859466 L187.067458,4.99859466 C187.906309,4.99859466 188.240475,4.63842602 188.240475,3.99578398 C188.240475,3.43023489 187.92005,3.03151978 187.107433,3.03151978 L187.107433,3.03151978 Z M188.106808,10 L186.586508,6.96566954 L185.547158,6.96566954 L185.547158,10 L183,10 L183,1 L187.173017,1 C189.3604,1 190.813866,1.79743023 190.813866,3.93194138 C190.813866,5.28167035 190.1599,6.11764706 189.133666,6.56755672 L191,10 L188.106808,10 Z" id="Fill-5"></path>
                <path d="M10.9139589,18 L4.56780175,8.72298838 C4.14808076,8.09183423 3.58036565,7.24174475 3.35776796,6.80447065 C3.35776796,7.43622136 3.40750368,9.57307787 3.40750368,10.5198091 L3.40750368,18 L0,18 L0,1 L3.30863877,1 L9.43219825,9.98589325 C9.85191924,10.617644 10.4202409,11.4671369 10.642232,11.904411 C10.642232,11.2732568 10.5931029,9.13580377 10.5931029,8.18847598 L10.5931029,1 L14,1 L14,18 L10.9139589,18 Z" id="Fill-7"></path>
                <polygon id="Fill-9" points="23 18 23 1 35.6105609 1 35.6105609 4.32757834 26.6324279 4.32757834 26.6324279 7.26560691 31.8481075 7.26560691 31.8481075 10.5687265 26.6324279 10.5687265 26.6324279 14.6736148 36 14.6736148 36 18"></polygon>
                <path d="M57.2610473,18 L53.7529486,18 L51.5500865,9.25750079 C51.2947004,8.23739341 51.0380563,6.97448854 50.9355245,6.34273783 C50.8587828,6.97448854 50.6027677,8.26185212 50.3467526,9.25750079 L48.0935682,18 L44.7389527,18 L41,1 L44.7389527,1 L46.3008335,9.28136295 C46.4543167,10.1075903 46.6593804,11.3704951 46.736122,12.0738323 C46.8644441,11.3704951 47.1456204,10.1075903 47.3506841,9.28136295 L49.4503853,1 L52.5747759,1 L54.7002673,9.28136295 C54.904702,10.1075903 55.1865073,11.3704951 55.3148294,12.0738323 C55.391571,11.3704951 55.5966347,10.0831316 55.7501179,9.28136295 L57.3126278,1 L61,1 L57.2610473,18 Z" id="Fill-11"></path>
                <path d="M84.2762868,11.2730208 L84.2762868,18 L80.7243364,18 L80.7243364,11.3458029 L74,1 L78.0848365,1 L80.5978149,5.03165357 C81.2316689,6.05179674 82.1958498,7.72697923 82.5255536,8.35875211 C82.8558806,7.72697923 83.794508,6.10011931 84.4539155,5.03165357 L86.9656475,1 L91,1 L84.2762868,11.2730208 Z" id="Fill-13"></path>
                <g id="Group-17" transform="translate(93.000000, 0.000000)">
                    <path d="M8.00449231,3.75906 C5.17372308,3.75906 3.99587692,6.12846 3.99587692,9.18186 C3.99587692,12.23406 5.17372308,14.60406 8.00449231,14.60406 C10.8364923,14.60406 12.0131077,12.23406 12.0131077,9.18186 C12.0131077,6.12846 10.8364923,3.75906 8.00449231,3.75906 M8.00449231,18.00006 C3.21987692,18.00006 0.389107692,14.38446 0.389107692,9.18186 C0.389107692,3.97866 3.21987692,0.36366 8.00449231,0.36366 C12.7903385,0.36366 15.6211077,3.97866 15.6211077,9.18186 C15.6211077,14.38446 12.7903385,18.00006 8.00449231,18.00006" id="Fill-15"></path>
                </g>
                <path d="M123.975221,4.30263897 L119.456333,4.30263897 L119.456333,8.67434026 L123.975221,8.67434026 C125.579969,8.67434026 126.443597,7.94592223 126.443597,6.46462661 C126.443597,4.93441185 125.505372,4.30263897 123.975221,4.30263897 L123.975221,4.30263897 Z M126.024519,18 L122.937532,11.8803341 L119.456333,11.8803341 L119.456333,18 L116,18 L116,1 L124.048605,1 C127.308439,1 130,2.77302077 130,6.39124789 C130,8.94160584 128.888927,10.5446028 126.691648,11.3947221 L130,18 L126.024519,18 Z" id="Fill-18"></path>
                <path d="M147.869443,18 L143.19644,9.79141664 L140.442534,12.9967014 L140.442534,18 L137,18 L137,1 L140.442534,1 L140.442534,5.83268414 C140.442534,6.46443485 140.417767,7.99459592 140.393001,8.52910833 C140.639457,8.1401551 141.279156,7.36284521 141.746094,6.80447065 L146.565883,1 L150.722415,1 L145.680936,6.87725024 L152,18 L147.869443,18 Z" id="Fill-20"></path>
            </g>
        </g>
    </g>
</svg>