
<svg width="316px" height="75px" viewBox="0 0 316 75" version="1.1" xmlns="http://www.w3.org/2000/svg" xmlns:xlink="http://www.w3.org/1999/xlink">
    <!-- Generator: Sketch 47.1 (45422) - http://www.bohemiancoding.com/sketch -->
    <desc>Created with Sketch.</desc>
    <defs></defs>
    <g id="Page-1" stroke="none" stroke-width="1" fill="none" fill-rule="evenodd">
        <g id="Mulberry-Landing-White" transform="translate(-382.000000, -1607.000000)" fill="#F7F3F3">
            <g id="Group-3" transform="translate(382.000000, 1607.000000)">
                <path d="M57.816,5.484 C57.816,9.048 55.44,10.544 52.25,10.544 L48.862,10.544 L48.862,16 L45.782,16 L45.782,0.6 L52.514,0.6 C55.418,0.6 57.816,2.206 57.816,5.484 Z M54.648,5.55 C54.648,4.208 53.768,3.592 52.404,3.592 L48.862,3.592 L48.862,7.552 L52.448,7.552 C53.878,7.552 54.648,6.892 54.648,5.55 Z M73.966,16 L73.966,0.6 L70.886,0.6 L70.886,6.496 L64.572,6.496 L64.572,0.6 L61.492,0.6 L61.492,16 L64.572,16 L64.572,9.532 L70.886,9.532 L70.886,16 L73.966,16 Z M81.976,16 L81.976,0.6 L78.896,0.6 L78.896,16 L81.976,16 Z M97.708,16 L97.708,12.964 L89.986,12.964 L89.986,0.6 L86.906,0.6 L86.906,16 L97.708,16 Z M112.098,16 L112.098,12.964 L104.376,12.964 L104.376,0.6 L101.296,0.6 L101.296,16 L112.098,16 Z M118.986,16 L118.986,0.6 L115.906,0.6 L115.906,16 L118.986,16 Z M135.95,5.484 C135.95,9.048 133.574,10.544 130.384,10.544 L126.996,10.544 L126.996,16 L123.916,16 L123.916,0.6 L130.648,0.6 C133.552,0.6 135.95,2.206 135.95,5.484 Z M132.782,5.55 C132.782,4.208 131.902,3.592 130.538,3.592 L126.996,3.592 L126.996,7.552 L130.582,7.552 C132.012,7.552 132.782,6.892 132.782,5.55 Z M158.79,5.484 C158.79,9.048 156.414,10.544 153.224,10.544 L149.836,10.544 L149.836,16 L146.756,16 L146.756,0.6 L153.488,0.6 C156.392,0.6 158.79,2.206 158.79,5.484 Z M155.622,5.55 C155.622,4.208 154.742,3.592 153.378,3.592 L149.836,3.592 L149.836,7.552 L153.422,7.552 C154.852,7.552 155.622,6.892 155.622,5.55 Z M174.94,16 L171.398,16 L168.648,10.456 L165.546,10.456 L165.546,16 L162.466,16 L162.466,0.6 L169.638,0.6 C172.542,0.6 174.94,2.206 174.94,5.484 C174.94,7.794 173.95,9.246 171.992,10.016 L174.94,16 Z M171.772,5.55 C171.772,4.164 170.936,3.592 169.572,3.592 L165.546,3.592 L165.546,7.552 L169.572,7.552 C171.002,7.552 171.772,6.892 171.772,5.55 Z M191.486,8.3 C191.486,12.986 189,16.242 184.798,16.242 C180.596,16.242 178.11,12.986 178.11,8.3 C178.11,3.614 180.596,0.358 184.798,0.358 C189,0.358 191.486,3.614 191.486,8.3 Z M188.318,8.3 C188.318,5.55 187.284,3.416 184.798,3.416 C182.312,3.416 181.278,5.55 181.278,8.3 C181.278,11.05 182.312,13.184 184.798,13.184 C187.284,13.184 188.318,11.05 188.318,8.3 Z M207.856,11.028 C207.856,14.262 205.678,16 202.378,16 L195.382,16 L195.382,0.6 L202.444,0.6 C205.436,0.6 207.328,2.03 207.328,4.67 C207.328,5.99 206.712,7.046 205.7,7.662 C206.932,8.212 207.856,9.334 207.856,11.028 Z M204.204,4.912 C204.204,3.944 203.654,3.438 202.312,3.438 L198.396,3.438 L198.396,6.364 L202.466,6.364 C203.742,6.364 204.204,5.77 204.204,4.912 Z M204.688,11.072 C204.688,9.752 203.984,9.092 202.488,9.092 L198.396,9.092 L198.396,13.074 L202.488,13.074 C203.984,13.074 204.688,12.282 204.688,11.072 Z M223.038,11.336 C223.038,7.992 220.332,7.156 217.89,6.584 C215.448,6.012 214.788,5.704 214.788,4.736 C214.788,4.054 215.338,3.35 216.988,3.35 C218.396,3.35 219.496,3.922 220.486,4.934 L222.708,2.778 C221.256,1.26 219.496,0.358 217.098,0.358 C214.062,0.358 211.598,2.074 211.598,4.868 C211.598,7.904 213.578,8.806 216.416,9.466 C219.32,10.126 219.848,10.566 219.848,11.556 C219.848,12.722 218.99,13.228 217.164,13.228 C215.69,13.228 214.304,12.722 213.226,11.468 L211.004,13.448 C212.17,15.164 214.414,16.242 216.988,16.242 C221.19,16.242 223.038,14.262 223.038,11.336 Z M237.978,3.636 L237.978,0.6 L226.054,0.6 L226.054,3.636 L230.476,3.636 L230.476,16 L233.556,16 L233.556,3.636 L237.978,3.636 Z M252.128,16 L252.128,0.6 L249.048,0.6 L249.048,16 L252.128,16 Z M271.468,16 L271.468,0.6 L268.432,0.6 L265.33,7.574 C264.934,8.454 264.494,9.576 264.296,10.148 C264.098,9.598 263.636,8.432 263.24,7.574 L260.028,0.6 L257.058,0.6 L257.058,16 L260.072,16 L260.072,10.346 C260.072,9.51 260.028,7.552 260.028,6.958 C260.248,7.53 260.71,8.63 261.106,9.51 L264.23,16.352 L267.354,9.51 C267.75,8.63 268.212,7.53 268.432,6.958 C268.432,7.552 268.388,9.51 268.388,10.346 L268.388,16 L271.468,16 Z" id="Phillip-Probst-im"></path>
                <g id="Mulberry-street-logo-long-negative" transform="translate(0.000000, 44.000000)">
                    <g id="Mulberry-street-logo">
                        <g id="Group-3">
                            <path d="M21.2345923,29.8154667 L21.2345923,19.1863873 C21.2345923,17.6148317 21.3176436,13.9343238 21.3176436,12.8178794 C20.9044128,13.892673 20.0384513,15.9599746 19.2960538,17.6148317 L13.4419513,30.4757841 L7.5868359,17.6148317 C6.84443846,15.9599746 5.97847692,13.892673 5.56625897,12.8178794 C5.56625897,13.9343238 5.64829744,17.6148317 5.64829744,19.1863873 L5.64829744,29.8154667 L-0.000202564103,29.8154667 L-0.000202564103,0.86511746 L5.56625897,0.86511746 L11.5864641,13.9749587 C12.3288615,15.5881651 13.1948231,17.7794032 13.5655154,18.8135619 C13.9362077,17.7377524 14.7606436,15.6288 15.503041,13.9749587 L21.3176436,0.86511746 L27.0066564,0.86511746 L27.0066564,29.8154667 L21.2345923,29.8154667 Z" id="Fill-1"></path>
                        </g>
                        <g id="Group-6" transform="translate(37.980769, 0.000000)">
                            <path d="M11.4006875,30.2698667 C4.86799519,30.2698667 0.461276442,25.5552 0.461276442,17.1193905 L0.461276442,0.865422222 L5.87258654,0.865422222 L5.87258654,17.0360889 C5.87258654,21.6684698 7.96057933,24.603327 11.4006875,24.603327 C14.8407957,24.603327 16.9667692,21.7497397 16.9667692,17.1193905 L16.9667692,0.865422222 L22.3790288,0.865422222 L22.3790288,17.0360889 C22.3790288,25.4302476 18.2818534,30.2698667 11.4006875,30.2698667" id="Fill-4"></path>
                        </g>
                        <g id="Group-9" transform="translate(75.961538, 0.000000)">
                            <polygon id="Fill-7" points="0.422346154 29.8154667 0.422346154 0.86511746 6.60670055 0.86511746 6.60670055 24.1072762 22.113706 24.1072762 22.113706 29.8154667"></polygon>
                        </g>
                        <g id="Group-12" transform="translate(104.826923, 0.000000)">
                            <path d="M13.325268,16.8293587 L6.13550841,16.8293587 L6.13550841,24.315327 L13.325268,24.315327 C15.9535373,24.315327 17.1907608,22.8250413 17.1907608,20.5515175 C17.1907608,18.0697397 15.9535373,16.8293587 13.325268,16.8293587 M13.0157248,6.20027937 L6.13550841,6.20027937 L6.13550841,11.7002159 L13.2863377,11.7002159 C15.5281526,11.7002159 16.3399916,10.5847873 16.3399916,8.97158095 C16.3399916,7.15113651 15.3743305,6.20027937 13.0157248,6.20027937 M13.1315661,29.8152635 L0.840039663,29.8152635 L0.840039663,0.864914286 L13.2474075,0.864914286 C18.5048954,0.864914286 21.8291623,3.55393016 21.8291623,8.51545397 C21.8291623,10.9982476 20.7467103,12.9822476 18.9692103,14.1413587 C21.1341142,15.1745016 22.7568425,17.283454 22.7568425,20.4682159 C22.7568425,26.5472 18.93028,29.8152635 13.1315661,29.8152635" id="Fill-10"></path>
                        </g>
                        <g id="Group-15" transform="translate(142.807692, 0.000000)">
                            <polygon id="Fill-13" points="0.123491758 29.8154667 0.123491758 0.86511746 21.593478 0.86511746 21.593478 6.53165714 6.30784615 6.53165714 6.30784615 11.5358476 15.1866648 11.5358476 15.1866648 17.1597206 6.30784615 17.1597206 6.30784615 24.148927 22.2554286 24.148927 22.2554286 29.8154667"></polygon>
                        </g>
                        <g id="Group-18" transform="translate(176.230769, 0.000000)">
                            <path d="M12.6678209,6.49010794 L5.59485216,6.49010794 L5.59485216,13.9344254 L12.6678209,13.9344254 C15.1802488,13.9344254 16.5342632,12.6930286 16.5342632,10.1706159 C16.5342632,7.56591746 15.065357,6.49010794 12.6678209,6.49010794 L12.6678209,6.49010794 Z M15.8762464,29.8155683 L11.0450925,19.3927111 L5.59485216,19.3927111 L5.59485216,29.8155683 L0.183542067,29.8155683 L0.183542067,0.865219048 L12.7846118,0.865219048 C17.8863786,0.865219048 22.100345,3.88540952 22.100345,10.0466794 C22.100345,14.3885206 20.3608257,17.1191873 16.9207175,18.5657905 L22.100345,29.8155683 L15.8762464,29.8155683 Z" id="Fill-16"></path>
                        </g>
                        <g id="Group-21" transform="translate(214.211538, 0.000000)">
                            <path d="M13.0406022,6.49010794 L5.96573438,6.49010794 L5.96573438,13.9344254 L13.0406022,13.9344254 C15.55303,13.9344254 16.9051454,12.6930286 16.9051454,10.1706159 C16.9051454,7.56591746 15.4362392,6.49010794 13.0406022,6.49010794 L13.0406022,6.49010794 Z M16.2490276,29.8155683 L11.4159748,19.3927111 L5.96573438,19.3927111 L5.96573438,29.8155683 L0.554424279,29.8155683 L0.554424279,0.865219048 L13.155494,0.865219048 C18.2591599,0.865219048 22.4731262,3.88540952 22.4731262,10.0466794 C22.4731262,14.3885206 20.733607,17.1191873 17.2934988,18.5657905 L22.4731262,29.8155683 L16.2490276,29.8155683 Z" id="Fill-19"></path>
                        </g>
                        <g id="Group-24" transform="translate(244.596154, 0.000000)">
                            <path d="M17.557164,18.3591619 L17.557164,29.8151619 L11.6799655,29.8151619 L11.6799655,18.4830984 L0.559576099,0.864812698 L7.31613791,0.864812698 L11.4706915,7.73008254 C12.5191235,9.46824127 14.113936,12.3218286 14.6592856,13.3966222 C15.2056661,12.3218286 16.7602732,9.54951111 17.8489106,7.73008254 L22.0044951,0.864812698 L28.6775534,0.864812698 L17.557164,18.3591619 Z" id="Fill-22"></path>
                        </g>
                        <path d="M293.273443,16.7619048 C290.92203,16.7619048 288.654455,15.9798809 287.134615,14.9684898 L289.091202,11.759325 C290.151873,12.4988368 292.004148,13.2373599 293.357283,13.2373599 C294.793283,13.2373599 295.250503,12.9832763 295.250503,12.2882539 C295.250503,11.7385633 294.729916,11.4004443 292.774304,10.9357778 C289.256932,10.1132192 287.571362,9.14236282 287.571362,6.18827026 C287.571362,3.40125991 289.798966,1.52380952 293.315363,1.52380952 C295.791562,1.52380952 297.581444,2.13578519 299.121757,3.23318905 L297.16517,6.44136521 C295.875402,5.55454425 294.584659,5.04835436 293.106739,5.04835436 C291.90081,5.04835436 291.609321,5.42799677 291.609321,5.95593701 C291.609321,6.50463894 292.128933,6.75773389 294.00168,7.20065004 C297.665284,8.08845965 299.288462,9.2273869 299.288462,11.9916582 C299.288462,15.3679053 296.770343,16.7619048 293.273443,16.7619048" id="Fill-25"></path>
                        <g id="Group-29" transform="translate(303.846154, 1.523810)">
                            <polygon id="Fill-27" points="7.85951834 3.87126667 7.85951834 15.7460286 3.98805089 15.7460286 3.98805089 3.87126667 0.0763822485 3.87126667 0.0763822485 0.0925047619 11.7721219 0.0925047619 11.7721219 3.87126667"></polygon>
                        </g>
                    </g>
                </g>
            </g>
        </g>
    </g>
</svg>