<?xml version="1.0" encoding="utf-8"?>
<!-- Generator: Adobe Illustrator 16.0.0, SVG Export Plug-In . SVG Version: 6.00 Build 0)  -->
<!DOCTYPE svg PUBLIC "-//W3C//DTD SVG 1.1//EN" "http://www.w3.org/Graphics/SVG/1.1/DTD/svg11.dtd">
<svg version="1.1" id="Ebene_1" xmlns="http://www.w3.org/2000/svg" xmlns:xlink="http://www.w3.org/1999/xlink" x="0px" y="0px"
	 width="188.63px" height="68.624px" viewBox="0 0 188.63 68.624" enable-background="new 0 0 188.63 68.624" xml:space="preserve">
<g>
	<path fill="#7F5235" d="M-392.831-13.821v-6.543h-6.709v6.543h-2.187v-14.585h2.187v5.897h6.709v-5.897h2.187v14.585H-392.831z"/>
	<path fill="#7F5235" d="M-379.692-13.591c-3.773,0-6.167-3.106-6.167-7.521c0-4.417,2.394-7.52,6.167-7.52
		c3.79,0,6.187,3.103,6.187,7.52C-373.505-16.698-375.902-13.591-379.692-13.591z M-379.692-26.446
		c-2.542,0-3.938,2.062-3.938,5.333c0,3.272,1.396,5.334,3.938,5.334c2.562,0,3.957-2.062,3.957-5.334
		C-375.735-24.384-377.13-26.446-379.692-26.446z"/>
	<path fill="#7F5235" d="M-363.913-26.259v12.438h-2.187v-12.438h-4.25v-2.147h10.686v2.147H-363.913z"/>
	<path fill="#7F5235" d="M-355.109-13.821v-14.585h9.396v2.125h-7.208v3.605h4.187v2.125h-4.187v4.602h7.521v2.128H-355.109z"/>
	<path fill="#7F5235" d="M-340.62-13.821v-14.585h2.187v12.438h7.271v2.147H-340.62z"/>
</g>
<g>
	<path fill="#FABA00" d="M-301.786-16.126v0.085l-0.157,0.085l-0.115-0.026l-7.1-2.266l-1.562,7.283
		c-0.04,0.079-0.069,0.125-0.089,0.145s-0.053,0.033-0.099,0.033c-0.04-0.014-0.072-0.033-0.102-0.06
		c-0.03-0.026-0.046-0.065-0.056-0.099l-1.593-7.303l-7.116,2.266l-0.115,0.026l-0.145-0.085v-0.085l0.086-0.145l5.523-5.036
		l-5.523-5.021l-0.086-0.145v-0.085l0.145-0.085l0.115,0.03l7.116,2.252l1.55-7.273c0.026-0.059,0.059-0.105,0.092-0.138
		s0.059-0.049,0.079-0.049c0.049,0.02,0.085,0.043,0.114,0.072c0.03,0.026,0.053,0.062,0.072,0.099l1.593,7.29l7.1-2.252l0.115-0.03
		l0.157,0.085v0.085l-0.098,0.145l-5.523,5.021l5.523,5.036L-301.786-16.126z"/>
	<path fill="#FABA00" d="M-272.261-16.126v0.085l-0.157,0.085l-0.115-0.026l-7.1-2.266l-1.563,7.283
		c-0.039,0.079-0.068,0.125-0.088,0.145c-0.021,0.02-0.053,0.033-0.099,0.033c-0.04-0.014-0.072-0.033-0.103-0.06
		c-0.029-0.026-0.046-0.065-0.056-0.099l-1.593-7.303l-7.116,2.266l-0.114,0.026l-0.145-0.085v-0.085l0.085-0.145l5.523-5.036
		l-5.523-5.021l-0.085-0.145v-0.085l0.145-0.085l0.114,0.03l7.116,2.252l1.551-7.273c0.025-0.059,0.059-0.105,0.092-0.138
		c0.032-0.033,0.059-0.049,0.078-0.049c0.05,0.02,0.086,0.043,0.115,0.072c0.029,0.026,0.053,0.062,0.072,0.099l1.593,7.29
		l7.1-2.252l0.115-0.03l0.157,0.085v0.085l-0.099,0.145l-5.523,5.021l5.523,5.036L-272.261-16.126z"/>
	<path fill="#FABA00" d="M-242.735-16.126v0.085l-0.158,0.085l-0.114-0.026l-7.1-2.266l-1.563,7.283
		c-0.039,0.079-0.069,0.125-0.089,0.145s-0.053,0.033-0.099,0.033c-0.039-0.014-0.072-0.033-0.102-0.06s-0.046-0.065-0.056-0.099
		l-1.593-7.303l-7.116,2.266l-0.114,0.026l-0.145-0.085v-0.085l0.085-0.145l5.523-5.036l-5.523-5.021l-0.085-0.145v-0.085
		l0.145-0.085l0.114,0.03l7.116,2.252l1.55-7.273c0.026-0.059,0.06-0.105,0.092-0.138c0.033-0.033,0.06-0.049,0.079-0.049
		c0.049,0.02,0.086,0.043,0.115,0.072c0.029,0.026,0.053,0.062,0.072,0.099l1.593,7.29l7.1-2.252l0.114-0.03l0.158,0.085v0.085
		l-0.099,0.145l-5.523,5.021l5.523,5.036L-242.735-16.126z"/>
	<path fill="#FABA00" d="M-213.21-16.126v0.085l-0.158,0.085l-0.115-0.026l-7.1-2.266l-1.562,7.283
		c-0.04,0.079-0.069,0.125-0.089,0.145s-0.053,0.033-0.099,0.033c-0.039-0.014-0.072-0.033-0.102-0.06s-0.046-0.065-0.056-0.099
		l-1.593-7.303l-7.116,2.266l-0.115,0.026l-0.145-0.085v-0.085l0.086-0.145l5.523-5.036l-5.523-5.021l-0.086-0.145v-0.085
		l0.145-0.085l0.115,0.03l7.116,2.252l1.55-7.273c0.026-0.059,0.06-0.105,0.092-0.138c0.033-0.033,0.06-0.049,0.079-0.049
		c0.049,0.02,0.085,0.043,0.115,0.072c0.029,0.026,0.052,0.062,0.072,0.099l1.592,7.29l7.1-2.252l0.115-0.03l0.158,0.085v0.085
		l-0.099,0.145l-5.523,5.021l5.523,5.036L-213.21-16.126z"/>
</g>
<g>
	<path fill="#FABA00" d="M-199.106-13.591c-2.125,0-3.957-0.919-5.186-2.358l1.563-1.517c0.979,1.058,2.417,1.728,3.79,1.728
		c2.042,0,3.021-0.709,3.021-2.128c0-1.122-0.854-1.687-3.29-2.416c-3.084-0.916-4.564-1.685-4.564-4.289
		c0-2.522,2.128-4.062,4.814-4.062c1.979,0,3.477,0.729,4.771,1.977l-1.544,1.563c-0.916-0.936-1.957-1.396-3.396-1.396
		c-1.708,0-2.437,0.834-2.437,1.813c0,1.021,0.667,1.52,3.188,2.269c2.873,0.877,4.663,1.793,4.663,4.396
		C-193.711-15.384-195.376-13.591-199.106-13.591z"/>
</g>
<g>
	<path fill="#7F5235" d="M54.915,22.117v-9.771H44.896v9.771h-3.266V0.338h3.266v8.806h10.018V0.338h3.266v21.779H54.915z"/>
	<path fill="#7F5235" d="M74.534,22.46c-5.634,0-9.209-4.639-9.209-11.231C65.325,4.633,68.9,0,74.534,0
		c5.659,0,9.238,4.633,9.238,11.229C83.772,17.822,80.193,22.46,74.534,22.46z M74.534,3.266c-3.795,0-5.88,3.079-5.88,7.963
		c0,4.886,2.085,7.966,5.88,7.966c3.825,0,5.909-3.08,5.909-7.966C80.443,6.345,78.359,3.266,74.534,3.266z"/>
	<path fill="#7F5235" d="M98.094,3.545v18.572H94.83V3.545h-6.346V0.338h15.957v3.207H98.094z"/>
	<path fill="#7F5235" d="M111.242,22.117V0.338h14.028v3.172h-10.762v5.384h6.25v3.173h-6.25v6.872h11.229v3.178H111.242z"/>
	<path fill="#7F5235" d="M132.876,22.117V0.338h3.266V18.91h10.855v3.207H132.876z"/>
</g>
<g>
	<g>
		<path fill="#FABA00" d="M27.249,60.65v0.127l-0.235,0.128l-0.172-0.04L16.24,57.483l-2.333,10.875
			c-0.06,0.118-0.104,0.187-0.133,0.216c-0.029,0.029-0.079,0.05-0.147,0.05c-0.06-0.021-0.108-0.05-0.151-0.089
			c-0.045-0.04-0.069-0.098-0.083-0.147l-2.378-10.904L0.388,60.866l-0.172,0.04L0,60.777V60.65l0.128-0.216l8.248-7.52
			l-8.248-7.497L0,45.202v-0.128l0.216-0.127l0.172,0.044l10.626,3.363l2.314-10.861c0.04-0.088,0.087-0.157,0.137-0.206
			c0.049-0.049,0.087-0.074,0.118-0.074c0.073,0.03,0.127,0.064,0.17,0.108c0.045,0.039,0.079,0.093,0.108,0.147l2.378,10.886
			l10.602-3.363l0.172-0.044l0.235,0.127v0.128l-0.146,0.216l-8.248,7.497l8.248,7.52L27.249,60.65z"/>
		<path fill="#FABA00" d="M71.336,60.65v0.127l-0.234,0.128l-0.173-0.04l-10.601-3.383l-2.335,10.875
			c-0.058,0.118-0.102,0.187-0.131,0.216c-0.03,0.029-0.079,0.05-0.147,0.05c-0.06-0.021-0.108-0.05-0.153-0.089
			c-0.043-0.04-0.068-0.098-0.083-0.147l-2.378-10.904l-10.626,3.383l-0.171,0.04l-0.216-0.128V60.65l0.127-0.216l8.248-7.52
			l-8.248-7.497l-0.127-0.216v-0.128l0.216-0.127l0.171,0.044l10.626,3.363l2.316-10.861c0.038-0.088,0.087-0.157,0.137-0.206
			c0.048-0.049,0.088-0.074,0.117-0.074c0.075,0.03,0.128,0.064,0.172,0.108c0.043,0.039,0.079,0.093,0.108,0.147l2.378,10.886
			l10.601-3.363l0.173-0.044l0.234,0.127v0.128l-0.147,0.216l-8.248,7.497l8.248,7.52L71.336,60.65z"/>
		<path fill="#FABA00" d="M115.424,60.65v0.127l-0.236,0.128l-0.17-0.04l-10.601-3.383l-2.336,10.875
			c-0.059,0.118-0.103,0.187-0.132,0.216c-0.029,0.029-0.078,0.05-0.148,0.05c-0.059-0.021-0.108-0.05-0.151-0.089
			c-0.044-0.04-0.067-0.098-0.082-0.147l-2.38-10.904l-10.625,3.383l-0.171,0.04l-0.216-0.128V60.65l0.127-0.216l8.248-7.52
			l-8.248-7.497l-0.127-0.216v-0.128l0.216-0.127l0.171,0.044l10.625,3.363l2.315-10.861c0.038-0.088,0.088-0.157,0.138-0.206
			c0.049-0.049,0.087-0.074,0.116-0.074c0.073,0.03,0.129,0.064,0.172,0.108c0.044,0.039,0.079,0.093,0.108,0.147l2.38,10.886
			l10.601-3.363l0.17-0.044l0.236,0.127v0.128l-0.146,0.216l-8.247,7.497l8.247,7.52L115.424,60.65z"/>
		<path fill="#FABA00" d="M159.512,60.65v0.127l-0.236,0.128l-0.172-0.04l-10.602-3.383l-2.333,10.875
			c-0.059,0.118-0.103,0.187-0.132,0.216c-0.028,0.029-0.078,0.05-0.148,0.05c-0.059-0.021-0.107-0.05-0.151-0.089
			c-0.044-0.04-0.067-0.098-0.082-0.147l-2.38-10.904l-10.624,3.383l-0.173,0.04l-0.216-0.128V60.65l0.129-0.216l8.247-7.52
			l-8.247-7.497l-0.129-0.216v-0.128l0.216-0.127l0.173,0.044l10.624,3.363l2.315-10.861c0.038-0.088,0.088-0.157,0.138-0.206
			s0.087-0.074,0.116-0.074c0.073,0.03,0.129,0.064,0.172,0.108c0.044,0.039,0.079,0.093,0.108,0.147l2.377,10.886l10.602-3.363
			l0.172-0.044l0.236,0.127v0.128l-0.146,0.216l-8.248,7.497l8.248,7.52L159.512,60.65z"/>
	</g>
	<g>
		<path fill="#FABA00" d="M180.572,64.436c-3.173,0-5.909-1.373-7.743-3.521l2.336-2.265c1.461,1.579,3.607,2.58,5.658,2.58
			c3.051,0,4.512-1.06,4.512-3.178c0-1.675-1.274-2.518-4.914-3.607c-4.605-1.368-6.816-2.515-6.816-6.404
			c0-3.766,3.18-6.065,7.189-6.065c2.957,0,5.191,1.088,7.125,2.952l-2.304,2.333c-1.368-1.397-2.923-2.083-5.072-2.083
			c-2.549,0-3.637,1.245-3.637,2.707c0,1.525,0.994,2.27,4.76,3.388c4.29,1.31,6.965,2.677,6.965,6.563
			C188.63,61.758,186.142,64.436,180.572,64.436z"/>
	</g>
</g>
<rect x="-327.838" y="184.73" fill="#7F5235" width="96" height="95"/>
</svg>
